<?xml version="1.0" encoding="UTF-8"?>
<svg version="1.1" xmlns="http://www.w3.org/2000/svg"  width="908" height="202">
<path d="M0 0 C299.64 0 599.28 0 908 0 C908 66.66 908 133.32 908 202 C608.36 202 308.72 202 0 202 C0 135.34 0 68.68 0 0 Z " fill="#20201F" transform="translate(0,0)"/>
<path d="M0 0 C6.03829486 3.9852746 10.33565847 10.02714925 12.64453125 16.92578125 C14.03606942 25.04563582 13.77728458 32.56364784 9.61328125 39.77734375 C5.22096087 45.82874883 -0.50235 50.70410988 -8 52 C-25.13721224 53.41629853 -25.13721224 53.41629853 -32 48 C-32.93392578 47.27103516 -32.93392578 47.27103516 -33.88671875 46.52734375 C-39.77693297 41.30394624 -42.4690558 35.36275851 -43.4140625 27.59765625 C-43.78112682 18.7011762 -42.29403222 12.03513423 -36.4609375 5.1953125 C-26.67994647 -4.12212445 -11.96646187 -6.0881999 0 0 Z " fill="#A0814D" transform="translate(799,104)"/>
<path d="M0 0 C6.91595622 4.74624446 10.74601883 11.01673629 13 19 C14.02952719 27.6371913 13.16884163 33.96581883 8 41 C7.60425781 41.57492188 7.20851563 42.14984375 6.80078125 42.7421875 C3.11974181 47.65839299 -1.92673339 50.91845937 -8 52 C-10.65859048 52.12020966 -13.2794263 52.18507696 -15.9375 52.1875 C-16.99227539 52.20586914 -16.99227539 52.20586914 -18.06835938 52.22460938 C-22.16682735 52.23613272 -25.31561442 51.82416742 -29 50 C-29 49.34 -29 48.68 -29 48 C-29.87978516 47.86271484 -29.87978516 47.86271484 -30.77734375 47.72265625 C-35.53456742 46.17593151 -38.58028497 41.30827794 -41.1171875 37.18359375 C-44.2881238 30.19243419 -44.30849313 21.33838167 -42.12109375 14.0859375 C-38.68413978 6.57681694 -33.79462132 2.08829164 -26.375 -1.375 C-17.64318344 -4.55625634 -8.25828736 -4.2015848 0 0 Z " fill="#DACD8C" transform="translate(612,104)"/>
<path d="M0 0 C3.3 0 6.6 0 10 0 C10 10.89 10 21.78 10 33 C23.86 33 37.72 33 52 33 C52 22.11 52 11.22 52 0 C55.3 0 58.6 0 62 0 C62 26.07 62 52.14 62 79 C58.37 79 54.74 79 51 79 C51 67.12 51 55.24 51 43 C37.47 43 23.94 43 10 43 C10 54.88 10 66.76 10 79 C6.7 79 3.4 79 0 79 C0 52.93 0 26.86 0 0 Z " fill="#EAE09B" transform="translate(491,76)"/>
<path d="M0 0 C16.83 0 33.66 0 51 0 C51 3.3 51 6.6 51 10 C37.47 10 23.94 10 10 10 C10 17.92 10 25.84 10 34 C22.54 34 35.08 34 48 34 C48 37.3 48 40.6 48 44 C35.79 44 23.58 44 11 44 C11 52.25 11 60.5 11 69 C24.86 69 38.72 69 53 69 C53 72.3 53 75.6 53 79 C35.51 79 18.02 79 0 79 C0 52.93 0 26.86 0 0 Z " fill="#8D6737" transform="translate(200,76)"/>
<path d="M0 0 C6.5713264 5.21580616 10.54713669 10.98331255 11.7421875 19.3828125 C11.7421875 22.6828125 11.7421875 25.9828125 11.7421875 29.3828125 C-2.1178125 29.3828125 -15.9778125 29.3828125 -30.2578125 29.3828125 C-28.76187737 35.87723592 -28.76187737 35.87723592 -24.8203125 39.7578125 C-23.92505859 40.48097656 -23.92505859 40.48097656 -23.01171875 41.21875 C-19.06537554 43.83792656 -14.82817991 43.8532915 -10.2578125 43.3828125 C-5.58314398 41.82458966 -2.48118653 40.12192637 0.7421875 36.3828125 C4.11722419 37.5686362 6.38941481 38.65854939 8.7421875 41.3828125 C6.55272664 46.5968894 2.69111006 48.92273762 -2.2578125 51.3828125 C-10.9154979 54.08833919 -19.42860413 54.03078097 -27.734375 50.2578125 C-34.69418319 46.16106922 -38.72754248 39.97362256 -41.2578125 32.3828125 C-42.22840808 22.35742018 -41.56021106 14.60514704 -35.2578125 6.3828125 C-26.88579482 -3.12108636 -11.25248629 -6.90603236 0 0 Z " fill="#B09760" transform="translate(360.2578125,103.6171875)"/>
<path d="M0 0 C4.9478915 4.70049693 8.285536 8.20479032 8.58084106 15.32388306 C8.61588709 17.68158735 8.61236712 20.03661636 8.59765625 22.39453125 C8.5962413 23.25310226 8.59482635 24.11167328 8.59336853 24.9962616 C8.58779057 27.72671049 8.57524214 30.45707607 8.5625 33.1875 C8.55748215 35.0436186 8.55291974 36.8997385 8.54882812 38.75585938 C8.53782836 43.2956048 8.52057893 47.8352883 8.5 52.375 C5.2 52.375 1.9 52.375 -1.5 52.375 C-1.51458252 51.34616699 -1.52916504 50.31733398 -1.54418945 49.25732422 C-1.60238657 45.42153053 -1.67961703 41.58631078 -1.76245117 37.75097656 C-1.79560018 36.09449616 -1.82366309 34.43790554 -1.84643555 32.78125 C-1.88016732 30.39275366 -1.93248959 28.00525829 -1.98828125 25.6171875 C-1.99467117 24.88257294 -2.0010611 24.14795837 -2.00764465 23.39108276 C-2.16538549 17.81056438 -3.42688771 13.67845809 -7.1875 9.5 C-10.58403382 7.8476322 -13.83456298 7.80660221 -17.5 8.375 C-20.31780534 9.76385248 -20.31780534 9.76385248 -22.5 11.375 C-23.16 11.375 -23.82 11.375 -24.5 11.375 C-27.52302443 20.2455742 -28.03265373 28.75278567 -28.1875 38.0625 C-28.22076184 39.45771249 -28.25525927 40.85289609 -28.29101562 42.24804688 C-28.37277683 45.62361663 -28.44216138 48.99895001 -28.5 52.375 C-31.8 52.375 -35.1 52.375 -38.5 52.375 C-38.5 34.885 -38.5 17.395 -38.5 -0.625 C-35.2 -0.625 -31.9 -0.625 -28.5 -0.625 C-28.17 1.355 -27.84 3.335 -27.5 5.375 C-26.613125 4.59125 -25.72625 3.8075 -24.8125 3 C-18.11258518 -2.92085496 -7.98439008 -3.70703825 0 0 Z " fill="#8E6938" transform="translate(863.5,102.625)"/>
<path d="M0 0 C4.19891793 2.1721675 6.52960695 5.22382966 8.7421875 9.30859375 C9.59500085 12.07680589 9.86485634 14.54523921 9.85571289 17.43457031 C9.85563736 18.23509827 9.85556183 19.03562622 9.85548401 19.8604126 C9.85032272 20.71471863 9.84516144 21.56902466 9.83984375 22.44921875 C9.8384288 23.33140076 9.83701385 24.21358276 9.83555603 25.12249756 C9.82996751 27.9345644 9.81741711 30.74655105 9.8046875 33.55859375 C9.79967102 35.46744677 9.79510837 37.37630103 9.79101562 39.28515625 C9.78000184 43.95966622 9.76274508 48.6341164 9.7421875 53.30859375 C6.4421875 53.30859375 3.1421875 53.30859375 -0.2578125 53.30859375 C-0.2671582 52.21393799 -0.27650391 51.11928223 -0.28613281 49.99145508 C-0.32609187 45.91894264 -0.39186652 41.84718095 -0.46533203 37.77514648 C-0.49350749 36.01482814 -0.51473909 34.25438408 -0.52880859 32.49389648 C-0.55028623 29.95881964 -0.59695842 27.42524865 -0.6484375 24.890625 C-0.64966614 24.10710159 -0.65089478 23.32357819 -0.65216064 22.51631165 C-0.78470435 17.53959342 -1.53890709 14.92231885 -5.2578125 11.30859375 C-9.31361781 8.60472354 -12.49723522 8.66571237 -17.2578125 9.30859375 C-21.91282523 11.46369224 -23.74271208 13.62655956 -25.64883423 18.34622192 C-26.65662513 21.59372774 -26.73814075 24.84240755 -26.76953125 28.2109375 C-26.78748245 28.93350235 -26.80543365 29.6560672 -26.82392883 30.40052795 C-26.87761256 32.68232586 -26.91179013 34.96391981 -26.9453125 37.24609375 C-26.97852286 38.8040646 -27.01301591 40.36200866 -27.04882812 41.91992188 C-27.1333137 45.71599755 -27.2003223 49.51201719 -27.2578125 53.30859375 C-30.5578125 53.30859375 -33.8578125 53.30859375 -37.2578125 53.30859375 C-37.2578125 35.81859375 -37.2578125 18.32859375 -37.2578125 0.30859375 C-33.9578125 0.30859375 -30.6578125 0.30859375 -27.2578125 0.30859375 C-26.9278125 2.61859375 -26.5978125 4.92859375 -26.2578125 7.30859375 C-25.5565625 6.54546875 -24.8553125 5.78234375 -24.1328125 4.99609375 C-17.37885946 -1.31738409 -8.92822326 -2.73407529 0 0 Z " fill="#C6B276" transform="translate(421.2578125,101.69140625)"/>
<path d="M0 0 C13.86 0 27.72 0 42 0 C42 11.46199015 42 11.46199015 36.25 17.25 C35.05907315 18.53178821 33.86898961 19.81436039 32.6796875 21.09765625 C32.06963867 21.73977051 31.45958984 22.38188477 30.83105469 23.04345703 C27.90682738 26.16809138 25.14513033 29.42659175 22.375 32.6875 C21.8790332 33.26338867 21.38306641 33.83927734 20.87207031 34.43261719 C18.9217122 36.7015113 17.02930393 38.95898788 15.2890625 41.39453125 C14.86367188 41.92433594 14.43828125 42.45414063 14 43 C13.34 43 12.68 43 12 43 C12 43.66 12 44.32 12 45 C22.23 45 32.46 45 43 45 C43 47.64 43 50.28 43 53 C28.48 53 13.96 53 -1 53 C-1 44.19458876 -0.77925435 42.45916645 4.75 36.8125 C5.94217942 35.52024412 7.13356654 34.2272569 8.32421875 32.93359375 C8.93442871 32.28503418 9.54463867 31.63647461 10.17333984 30.96826172 C13.06541058 27.85199946 15.81063013 24.61481155 18.5625 21.375 C19.29388184 20.5238562 19.29388184 20.5238562 20.04003906 19.65551758 C22.76308246 16.48416826 25.38691387 13.26635766 28 10 C14.14 9.505 14.14 9.505 0 9 C0 6.03 0 3.06 0 0 Z " fill="#B39A61" transform="translate(703,102)"/>
<path d="M0 0 C3.96 0 7.92 0 12 0 C15.48598931 8.33496904 18.93210866 16.68413746 22.3125 25.0625 C22.9940918 26.7321582 22.9940918 26.7321582 23.68945312 28.43554688 C24.11806641 29.49966797 24.54667969 30.56378906 24.98828125 31.66015625 C25.37540283 32.61543213 25.76252441 33.57070801 26.16137695 34.55493164 C27 37 27 37 27 40 C27.66 40 28.32 40 29 40 C29.12761719 39.30261719 29.25523437 38.60523438 29.38671875 37.88671875 C31.28207709 28.96525495 34.46435205 20.38599532 38 12 C38.44988281 10.91589844 38.89976562 9.83179687 39.36328125 8.71484375 C40.57034283 5.80769544 41.78294498 2.90297549 43 0 C46.63 0 50.26 0 54 0 C52.72064986 4.90417554 51.05389646 9.50571051 49.13671875 14.1953125 C47.88542861 17.28268818 46.68972859 20.38840214 45.5 23.5 C43.69501506 28.20841638 41.85988101 32.90208633 39.97265625 37.578125 C39.28384446 39.29323869 38.60515143 41.01243222 37.93359375 42.734375 C37.40958984 44.07242188 37.40958984 44.07242188 36.875 45.4375 C36.56304687 46.24058594 36.25109375 47.04367188 35.9296875 47.87109375 C35 50 35 50 33 53 C30.3984375 53.29296875 30.3984375 53.29296875 27.375 53.1875 C25.87066406 53.14689453 25.87066406 53.14689453 24.3359375 53.10546875 C23.56507813 53.07066406 22.79421875 53.03585938 22 53 C18.89864849 46.98948972 16.21754998 40.89287056 13.671875 34.62890625 C13.27800598 33.66597153 12.88413696 32.7030368 12.47833252 31.71092224 C11.65333836 29.69208468 10.82985311 27.6726299 10.0078125 25.65258789 C8.74334106 22.54614088 7.47359805 19.44188728 6.203125 16.33789062 C5.40073285 14.37252188 4.59863868 12.40703146 3.796875 10.44140625 C3.41569519 9.50921768 3.03451538 8.57702911 2.64178467 7.61659241 C2.2943219 6.76157639 1.94685913 5.90656036 1.58886719 5.02563477 C1.28116394 4.27032974 0.97346069 3.51502472 0.65643311 2.73683167 C0 1 0 1 0 0 Z " fill="#A0814D" transform="translate(259,102)"/>
<path d="M0 0 C3.3 0 6.6 0 10 0 C10 4.95 10 9.9 10 15 C14.95 15 19.9 15 25 15 C25 17.97 25 20.94 25 24 C20.38 24 15.76 24 11 24 C11.07399223 28.50332001 11.15680107 33.00464882 11.26245117 37.50708008 C11.29569818 39.03855059 11.32373093 40.57014356 11.34643555 42.10180664 C11.37998718 44.30407887 11.4322991 46.50522912 11.48828125 48.70703125 C11.49467117 49.39150833 11.5010611 50.07598541 11.50764465 50.78120422 C11.59607677 53.64241388 11.69328647 55.56842578 13.37695312 57.9375 C15.69486214 59.45487967 17.44894096 59.29419711 20.1875 59.1875 C21.08855469 59.16042969 21.98960937 59.13335937 22.91796875 59.10546875 C23.60503906 59.07066406 24.29210937 59.03585938 25 59 C25 61.97 25 64.94 25 68 C17.99140914 70.16629172 11.83317947 70.99991973 5.125 67.5 C-1.56615017 59.62805862 -0.35741829 49.11856794 -0.1875 39.4375 C-0.17242392 37.93686241 -0.15874069 36.43621015 -0.14648438 34.93554688 C-0.11371482 31.29005548 -0.06209479 27.64512365 0 24 C-3.63 24 -7.26 24 -11 24 C-11 21.03 -11 18.06 -11 15 C-7.37 15 -3.74 15 0 15 C0 10.05 0 5.1 0 0 Z " fill="#D1C384" transform="translate(450,87)"/>
<path d="M0 0 C4.3097072 2.40504259 7.20361011 5.15187855 9.1484375 9.71875 C10.79179612 16.14839062 10.93987017 22.70159353 8.0859375 28.7265625 C3.66174307 33.38990258 0.14160548 36.25610641 -6.4140625 36.4765625 C-11.41917682 36.41134928 -15.14343484 35.03703242 -19.2265625 32.1640625 C-23.71587524 27.32941801 -24.41707014 24.46312602 -24.5390625 17.9140625 C-24.57644531 16.60953125 -24.61382813 15.305 -24.65234375 13.9609375 C-24.16164028 9.58512308 -22.98779473 7.54607536 -20.2265625 4.1640625 C-14.0433033 -0.50492914 -7.54806406 -2.83383458 0 0 Z " fill="#262625" transform="translate(604.2265625,110.8359375)"/>
<path d="M0 0 C4.64942181 2.65556863 8.32439803 5.82179921 9.7734375 11.12890625 C10.47134109 17.36641954 10.76620569 22.9962931 8.0859375 28.75390625 C3.61436949 33.34632745 0.13207663 36.2212706 -6.4140625 36.44140625 C-11.41917682 36.37619303 -15.14343484 35.00187617 -19.2265625 32.12890625 C-24.33627622 26.62613763 -24.57703992 22.82274696 -24.50390625 15.46875 C-24.1292924 10.95755499 -23.07304579 7.66307205 -20.2265625 4.12890625 C-14.23954689 -0.63626944 -7.39406301 -2.892765 0 0 Z " fill="#2A2A29" transform="translate(791.2265625,110.87109375)"/>
<path d="M0 0 C0 3.63 0 7.26 0 11 C-2.536875 11.12375 -2.536875 11.12375 -5.125 11.25 C-10.09167507 11.71023244 -13.23406415 12.52375153 -17 16 C-19.16053707 20.14079526 -19.33807248 24.12818509 -19.4140625 28.70703125 C-19.43342865 29.43242599 -19.4527948 30.15782074 -19.4727478 30.90519714 C-19.53222108 33.20751422 -19.57879845 35.50988219 -19.625 37.8125 C-19.66320958 39.37957832 -19.70226303 40.94663631 -19.7421875 42.51367188 C-19.83789563 46.34228152 -19.92204448 50.17098942 -20 54 C-23.3 54 -26.6 54 -30 54 C-30 36.51 -30 19.02 -30 1 C-26.7 1 -23.4 1 -20 1 C-19.67 2.98 -19.34 4.96 -19 7 C-18.278125 6.21625 -17.55625 5.4325 -16.8125 4.625 C-11.429484 -0.39914827 -7.07210044 -0.21110748 0 0 Z " fill="#CEBC7D" transform="translate(668,101)"/>
<path d="M0 0 C3.67033927 3.27708863 5.69281189 6.71522208 8 11 C12.62 11 17.24 11 22 11 C22 11.99 22 12.98 22 14 C20.43359375 15.359375 20.43359375 15.359375 18.4375 16.75 C16.48400476 18.25324897 16.48400476 18.25324897 15 20 C14.83974601 23.54578685 14.83974601 23.54578685 16 27 C16.185625 28.134375 16.37125 29.26875 16.5625 30.4375 C16.706875 31.283125 16.85125 32.12875 17 33 C11.84728839 33.30310068 9.30450609 32.75010111 5 30 C1.00003714 31.33332095 0.16217663 33.4957827 -2 37 C-2.99 36.67 -3.98 36.34 -5 36 C-5.33 32.04 -5.66 28.08 -6 24 C-8.31 23.67 -10.62 23.34 -13 23 C-13.33 21.68 -13.66 20.36 -14 19 C-12.96939453 18.68482422 -12.96939453 18.68482422 -11.91796875 18.36328125 C-8.84761567 17.18170045 -6.56049121 16.08556139 -4 14 C-2.26991215 9.74252478 -1.65845068 5.52604933 -1 1 C-0.67 0.67 -0.34 0.34 0 0 Z " fill="#D3C787" transform="translate(142,83)"/>
<path d="M0 0 C1.796875 1.2578125 1.796875 1.2578125 3 3 C3.109375 5.12109375 3.109375 5.12109375 2.75 7.4375 C2.64171875 8.19933594 2.5334375 8.96117188 2.421875 9.74609375 C2.02659843 11.85789542 1.54874236 13.923294 1 16 C2.670625 16.185625 2.670625 16.185625 4.375 16.375 C8 17 8 17 10 19 C10.125 21.625 10.125 21.625 10 24 C10.556875 23.7834375 11.11375 23.566875 11.6875 23.34375 C17.0350042 21.3926336 21.30612611 20.50053738 27 21 C29 23 29 23 29.125 26.125 C29.08375 27.07375 29.0425 28.0225 29 29 C29.94875 29.12375 30.8975 29.2475 31.875 29.375 C35 30 35 30 37 32 C38.22462231 38.73542272 36.11318426 44.12108508 33 50 C34.423125 50.8971875 34.423125 50.8971875 35.875 51.8125 C39 54 39 54 41 57 C41.25760279 59.69452521 41.08900053 62.28548375 41 65 C40.67 65 40.34 65 40 65 C39.01 61.7 38.02 58.4 37 55 C34.36 54.67 31.72 54.34 29 54 C28 51 28 51 29.21484375 48.546875 C29.78332031 47.62390625 30.35179687 46.7009375 30.9375 45.75 C33.59994139 41.10305369 34.80614671 38.29753549 34 33 C32.87428657 31.64839289 32.87428657 31.64839289 29.9375 31.875 C24.32499052 32.67845053 21.27137384 37.79394792 18 42 C16.68 41.67 15.36 41.34 14 41 C15.66928523 35.66376032 18.49437231 33.93573679 23.00390625 30.94140625 C25.58797662 28.42813233 25.7176083 26.52246493 26 23 C23.91656149 23.47870914 21.83325311 23.95798469 19.75 24.4375 C18.58984375 24.70433594 17.4296875 24.97117188 16.234375 25.24609375 C15.16703125 25.49488281 14.0996875 25.74367187 13 26 C12.24203125 26.09410156 11.4840625 26.18820313 10.703125 26.28515625 C8.75065675 26.88214937 8.75065675 26.88214937 7.93359375 29.2421875 C7.62550781 30.15226562 7.31742188 31.06234375 7 32 C6.05693068 33.7285226 5.07670777 35.4372344 4.0625 37.125 C3.55847656 37.97320312 3.05445313 38.82140625 2.53515625 39.6953125 C1.15612635 41.76561185 -0.09331969 43.41023386 -2 45 C-2.66 45 -3.32 45 -4 45 C-4 45.66 -4 46.32 -4 47 C-5.32 46.67 -6.64 46.34 -8 46 C-7.62726739 40.03627831 -3.56256188 35.34999915 0.6953125 31.4453125 C2.11898478 30.28299069 3.55833148 29.13992395 5 28 C6.4783226 25.04335481 6.06032783 22.25770263 6 19 C2.74718472 18.51207771 0.65286916 18.59985439 -2.1796875 20.3359375 C-4.1667909 21.84217602 -6.1029114 23.38217825 -8 25 C-8.33 24.34 -8.66 23.68 -9 23 C-9.66 22.67 -10.32 22.34 -11 22 C-9.3603125 20.9790625 -9.3603125 20.9790625 -7.6875 19.9375 C-3.83876297 17.17170719 -2.35173447 14.61179994 -1 10 C-0.74802757 6.20747213 -0.74802757 6.20747213 -1 3 C-8.81821285 2.4314027 -14.45627337 3.98229529 -20.5 9.12890625 C-23.97462939 12.50887426 -27.05001328 15.507884 -29 20 C-29.99 20 -30.98 20 -32 20 C-28.97231042 11.07380638 -20.95457632 5.16766522 -12.78515625 1.03125 C-8.559727 -0.53328481 -4.41451189 -1.06244783 0 0 Z " fill="#D7C988" transform="translate(60,110)"/>
<path d="M0 0 C3.3 0 6.6 0 10 0 C10 17.49 10 34.98 10 53 C6.7 53 3.4 53 0 53 C0 35.51 0 18.02 0 0 Z " fill="#C0AA6F" transform="translate(680,102)"/>
<path d="M0 0 C0.66 0 1.32 0 2 0 C2.67119549 1.4562545 3.33681807 2.91507867 4 4.375 C4.556875 5.59316406 4.556875 5.59316406 5.125 6.8359375 C6 9 6 9 6 11 C12.435 10.505 12.435 10.505 19 10 C17.193388 13.61322401 16.33581029 14.83748791 13.375 17.25 C12.74335937 17.77078125 12.11171875 18.2915625 11.4609375 18.828125 C10.97882813 19.21484375 10.49671875 19.6015625 10 20 C10.65784963 23.29680965 11.89420573 25.84117922 13.5625 28.75 C14.01753906 29.54921875 14.47257812 30.3484375 14.94140625 31.171875 C15.29074219 31.77515625 15.64007813 32.3784375 16 33 C15.11441406 32.55527344 15.11441406 32.55527344 14.2109375 32.1015625 C6.90822324 28.07368918 6.90822324 28.07368918 -1 28 C-2.79815594 30.47356086 -4.21527 32.99189248 -5.60546875 35.71484375 C-7 38 -7 38 -10 39 C-10 33.06 -10 27.12 -10 21 C-12.64 20.01 -15.28 19.02 -18 18 C-18 17.34 -18 16.68 -18 16 C-16.25093469 15.35163958 -14.50070781 14.70641216 -12.75 14.0625 C-11.77546875 13.70285156 -10.8009375 13.34320313 -9.796875 12.97265625 C-7 12 -7 12 -3 11 C-2.01 7.37 -1.02 3.74 0 0 Z " fill="#171715" transform="translate(84,51)"/>
<path d="M0 0 C0.99 0 1.98 0 3 0 C4.65 4.62 6.3 9.24 8 14 C13.28 14.33 18.56 14.66 24 15 C21.50216383 19.99567234 18.77297098 23.97711838 14 27 C13.34 27 12.68 27 12 27 C12.56589844 27.95261719 13.13179687 28.90523437 13.71484375 29.88671875 C14.4561028 31.15342726 15.1969675 32.4203666 15.9375 33.6875 C16.49727539 34.62625977 16.49727539 34.62625977 17.06835938 35.58398438 C19.07941211 39.04444449 20.51275665 41.95510676 21 46 C17.47570279 45.67960934 15.41489371 44.68936665 12.6875 42.5625 C8.94881848 39.71319646 5.5873474 38.88527757 1 38 C-3.87711233 44.10122837 -3.87711233 44.10122837 -8.25 50.5625 C-9.11625 51.7690625 -9.11625 51.7690625 -10 53 C-10.99 53 -11.98 53 -13 53 C-13.12152487 45.26291674 -12.84800767 37.692641 -12 30 C-12.57363281 29.86207031 -13.14726563 29.72414063 -13.73828125 29.58203125 C-15.92076349 29.02039074 -18.05122252 28.40493653 -20.1875 27.6875 C-21.22970703 27.35298828 -21.22970703 27.35298828 -22.29296875 27.01171875 C-24 26 -24 26 -24.60668945 23.93676758 C-24.73648193 23.29763428 -24.86627441 22.65850098 -25 22 C-24.13048706 21.7997522 -24.13048706 21.7997522 -23.2434082 21.59545898 C-12.33782772 19.33464612 -12.33782772 19.33464612 -3.56201172 13.19628906 C-1.45692783 8.99841375 -0.59589896 4.63013492 0 0 Z M0 7 C-0.06574219 7.74765625 -0.13148437 8.4953125 -0.19921875 9.265625 C-0.74525297 12.60298616 -1.33665512 15.04009912 -3 18 C-7.17403705 20.18948197 -11.40283896 21.08179207 -16 22 C-16.99 22.495 -16.99 22.495 -18 23 C-18 23.66 -18 24.32 -18 25 C-15.36 25.99 -12.72 26.98 -10 28 C-10 33.94 -10 39.88 -10 46 C-6.15127112 44.71709037 -5.98989461 43.4678101 -4.1875 39.9375 C-1.37991382 35.11562594 -1.37991382 35.11562594 1.875 34.125 C5.26588908 35.07444894 8.11348856 36.38991066 11.16796875 38.125 C13.11280402 39.21548944 13.11280402 39.21548944 16 39 C15.55527344 38.39671875 15.11054687 37.7934375 14.65234375 37.171875 C14.08644531 36.37265625 13.52054688 35.5734375 12.9375 34.75 C12.36902344 33.96109375 11.80054687 33.1721875 11.21484375 32.359375 C10 30 10 30 10.0625 27.9296875 C11.29331354 25.39626297 12.87097099 24.12976926 15.0625 22.375 C16.40912172 21.29107602 17.73088022 20.17371898 19 19 C19 18.34 19 17.68 19 17 C12.565 17.495 12.565 17.495 6 18 C5.25130208 15.72135417 4.50260417 13.44270833 3.75390625 11.1640625 C3.04820271 8.98968201 3.04820271 8.98968201 2 7 C1.34 7 0.68 7 0 7 Z " fill="#B9A56C" transform="translate(84,44)"/>
<path d="M0 0 C3.0262924 2.0409879 4.77512461 3.6960364 6.6875 6.8125 C7.0175 9.1225 7.3475 11.4325 7.6875 13.8125 C-2.5425 13.8125 -12.7725 13.8125 -23.3125 13.8125 C-22.1286435 5.52550448 -22.1286435 5.52550448 -18.3125 1.8125 C-12.46467304 -2.1313833 -6.51568756 -2.33581252 0 0 Z " fill="#1E1D1C" transform="translate(353.3125,110.1875)"/>
<path d="M0 0 C0.66 0.33 1.32 0.66 2 1 C2.33 1.99 2.66 2.98 3 4 C4.64845188 7.19744158 4.64845188 7.19744158 7.41796875 7.6171875 C9.95532506 7.8533871 12.4522109 7.99043982 15 8 C15 8.66 15 9.32 15 10 C13.37373596 11.38232443 11.7074998 12.71937515 10 14 C10.2165625 15.0828125 10.2165625 15.0828125 10.4375 16.1875 C11.21875 20.09375 11.21875 20.09375 12 24 C11.13375 23.690625 10.2675 23.38125 9.375 23.0625 C6.23849262 22.07508101 3.24932587 21.46418941 0 21 C-0.66 21.99 -1.32 22.98 -2 24 C-2.66 24 -3.32 24 -4 24 C-4 21.36 -4 18.72 -4 16 C-6.97 15.505 -6.97 15.505 -10 15 C-10 14.34 -10 13.68 -10 13 C-8.906875 12.71125 -7.81375 12.4225 -6.6875 12.125 C-3.92132267 10.9882915 -3.15347334 10.32864463 -1.8671875 7.57421875 C-1.13470239 5.0603014 -0.50600479 2.5685767 0 0 Z " fill="#1B1A18" transform="translate(143,89)"/>
<path d="M0 0 C2 2 2 2 2.125 5.125 C2.08375 6.07375 2.0425 7.0225 2 8 C2.94875 8.12375 3.8975 8.2475 4.875 8.375 C8 9 8 9 10 11 C11.22462231 17.73542272 9.11318426 23.12108508 6 29 C6.94875 29.598125 7.8975 30.19625 8.875 30.8125 C12 33 12 33 14 36 C14.25760279 38.69452521 14.08900053 41.28548375 14 44 C13.67 44 13.34 44 13 44 C11.515 39.05 11.515 39.05 10 34 C7.36 33.67 4.72 33.34 2 33 C1 30 1 30 2.21484375 27.546875 C2.78332031 26.62390625 3.35179688 25.7009375 3.9375 24.75 C6.59994139 20.10305369 7.80614671 17.29753549 7 12 C5.87428657 10.64839289 5.87428657 10.64839289 2.9375 10.875 C-2.67500948 11.67845053 -5.72862616 16.79394792 -9 21 C-10.32 20.67 -11.64 20.34 -13 20 C-11.66470315 15.73142811 -10.12379036 14.02988857 -6.4375 11.5625 C-2.66512178 8.85612085 -2.66512178 8.85612085 -0.9375 4.5625 C-0.958125 3.716875 -0.97875 2.87125 -1 2 C-2.04800781 2.14308594 -2.04800781 2.14308594 -3.1171875 2.2890625 C-4.02726562 2.39992187 -4.93734375 2.51078125 -5.875 2.625 C-7.23238281 2.79902344 -7.23238281 2.79902344 -8.6171875 2.9765625 C-9.40351562 2.98429688 -10.18984375 2.99203125 -11 3 C-11.66 2.34 -12.32 1.68 -13 1 C-8.57117061 -0.10720735 -4.53942698 -0.22325051 0 0 Z " fill="#B29B64" transform="translate(87,131)"/>
<path d="M0 0 C1.37140038 0.01987537 2.7426453 0.05555764 4.11328125 0.10546875 C4.81517578 0.11900391 5.51707031 0.13253906 6.24023438 0.14648438 C7.96907954 0.18176693 9.6975289 0.23557292 11.42578125 0.29296875 C9.0481739 5.2480708 6.13056868 9.31327004 1.42578125 12.29296875 C0.76578125 12.29296875 0.10578125 12.29296875 -0.57421875 12.29296875 C-0.00832031 13.24558594 0.55757812 14.19820312 1.140625 15.1796875 C1.88188405 16.44639601 2.62274875 17.71333535 3.36328125 18.98046875 C3.73646484 19.60630859 4.10964844 20.23214844 4.49414062 20.87695312 C6.50519336 24.33741324 7.9385379 27.24807551 8.42578125 31.29296875 C4.89627539 30.97210458 2.80065767 29.96598338 0.05078125 27.85546875 C-3.3890324 25.23969837 -6.37619238 24.23538283 -10.57421875 23.29296875 C-9.91421875 22.96296875 -9.25421875 22.63296875 -8.57421875 22.29296875 C-8.90421875 21.30296875 -9.23421875 20.31296875 -9.57421875 19.29296875 C-8.13490758 19.74558233 -6.69782876 20.20529854 -5.26171875 20.66796875 C-4.46121094 20.92320313 -3.66070312 21.1784375 -2.8359375 21.44140625 C-0.57421875 22.29296875 -0.57421875 22.29296875 2.42578125 24.29296875 C1.98105469 23.6896875 1.53632812 23.08640625 1.078125 22.46484375 C0.51222656 21.665625 -0.05367187 20.86640625 -0.63671875 20.04296875 C-1.20519531 19.2540625 -1.77367188 18.46515625 -2.359375 17.65234375 C-3.57421875 15.29296875 -3.57421875 15.29296875 -3.5078125 13.22265625 C-2.28880254 10.70302896 -0.74234436 9.42569915 1.42578125 7.66796875 C4.3815044 5.34741576 4.3815044 5.34741576 6.42578125 2.29296875 C-0.00921875 2.78796875 -0.00921875 2.78796875 -6.57421875 3.29296875 C-3.57421875 0.29296875 -3.57421875 0.29296875 0 0 Z " fill="#A38854" transform="translate(96.57421875,58.70703125)"/>
<path d="M0 0 C1.010625 0.45375 2.02125 0.9075 3.0625 1.375 C0.255845 5.85766698 -2.79827072 9.54615943 -6.5625 13.25 C-7.05234375 13.74757812 -7.5421875 14.24515625 -8.046875 14.7578125 C-11.68393716 18.375 -11.68393716 18.375 -13.9375 18.375 C-13.9375 19.035 -13.9375 19.695 -13.9375 20.375 C-15.2575 20.045 -16.5775 19.715 -17.9375 19.375 C-17.56168957 11.85879147 -12.62874265 6.82085617 -7.5 1.75 C-4.46322202 -0.77161029 -4.23122041 -0.67162229 0 0 Z " fill="#947646" transform="translate(50.9375,132.625)"/>
<path d="M0 0 C1.35550385 2.7110077 1.16917207 4.91339169 1.1875 7.9375 C1.20167969 8.99839844 1.21585938 10.05929688 1.23046875 11.15234375 C1 14 1 14 -1 17 C-1.99 16.67 -2.98 16.34 -4 16 C-4 12.37 -4 8.74 -4 5 C-4.99 5.33 -5.98 5.66 -7 6 C-7 12.6 -7 19.2 -7 26 C-7.99 26 -8.98 26 -10 26 C-10.33 22.37 -10.66 18.74 -11 15 C-15.34215362 19.34215362 -15.76953597 23.13469047 -16 29 C-16 29.66 -16 30.32 -16 31 C-16.99 31 -17.98 31 -19 31 C-19.55411858 24.35057702 -18.75644595 19.58979671 -15 14 C-13.66666667 12.66666667 -12.33333333 11.33333333 -11 10 C-10.566875 8.80375 -10.13375 7.6075 -9.6875 6.375 C-8 3 -8 3 -4.375 1.625 C-3.26125 1.41875 -2.1475 1.2125 -1 1 C-0.67 0.67 -0.34 0.34 0 0 Z " fill="#B9A268" transform="translate(137,143)"/>
<path d="M0 0 C1.9375 1 1.9375 1 3 3 C3.52673518 6.56102656 3.62932095 9.7413581 2 13 C-1.26083766 14.63041883 -4.44238446 14.65964122 -8 14 C-10.6923481 11.81246717 -10.93936827 10.41576045 -11.4375 7 C-11 4 -11 4 -9.4375 1.625 C-6.1005787 -0.5996142 -3.93094707 -0.50030235 0 0 Z " fill="#BEA96E" transform="translate(689,76)"/>
<path d="M0 0 C3.5386994 1.65139305 4.81070153 2.71605229 7 6 C7.4375 8.875 7.4375 8.875 7 12 C4.5625 14.8125 4.5625 14.8125 2 17 C1.67 17.33 1.34 17.66 1 18 C-6.52238806 18.23880597 -6.52238806 18.23880597 -9 17 C-9 16.34 -9 15.68 -9 15 C-9.66 15 -10.32 15 -11 15 C-12.83849947 12.29632431 -12.99703118 10.83374606 -12.9375 7.5 C-12 4 -12 4 -9.875 1.5625 C-6.24560408 -0.40999778 -4.08210558 -0.5102632 0 0 Z M-11 6 C-10.37048442 11.65871031 -10.37048442 11.65871031 -7 16 C-3.58543666 16.75045506 -3.58543666 16.75045506 0 16 C3.04273417 13.9575649 3.04273417 13.9575649 5 11 C5.41986946 8.28836222 5.41986946 8.28836222 5 6 C4.34 6 3.68 6 3 6 C2.67 5.01 2.34 4.02 2 3 C-3.39449293 2.72570375 -6.51925805 2.63944354 -11 6 Z " fill="#BAA971" transform="translate(108,113)"/>
<path d="M0 0 C4.92155321 0.42184742 6.76804142 2.38328445 10 6 C10.61746094 6.67289062 11.23492187 7.34578125 11.87109375 8.0390625 C17 13.71491449 17 13.71491449 17 16 C12.91737344 15.45997003 10.62024558 14.27244293 7.4375 11.6875 C6.69371094 11.09324219 5.94992188 10.49898437 5.18359375 9.88671875 C3.00211873 8.00183067 0.92214279 6.15086458 -1 4 C-0.75 1.75 -0.75 1.75 0 0 Z " fill="#C8B77A" transform="translate(39,81)"/>
<path d="M0 0 C0 0.99 0 1.98 0 3 C-1.56640625 4.359375 -1.56640625 4.359375 -3.5625 5.75 C-5.51599524 7.25324897 -5.51599524 7.25324897 -7 9 C-7.16025399 12.54578685 -7.16025399 12.54578685 -6 16 C-5.814375 17.134375 -5.62875 18.26875 -5.4375 19.4375 C-5.293125 20.283125 -5.14875 21.12875 -5 22 C-7.31 22 -9.62 22 -12 22 C-12.33 21.34 -12.66 20.68 -13 20 C-12.34 19.34 -11.68 18.68 -11 18 C-10.34 18.33 -9.68 18.66 -9 19 C-9.515625 17.9275 -10.03125 16.855 -10.5625 15.75 C-11.53288241 13.4689115 -12.01391901 12.25054212 -11.875 9.75 C-10.84968742 7.69937485 -9.78943908 6.43155126 -8 5 C-7.34 5 -6.68 5 -6 5 C-6 4.34 -6 3.68 -6 3 C-7.32 3 -8.64 3 -10 3 C-10 2.34 -10 1.68 -10 1 C-6.78548731 -0.60725635 -3.56387464 -0.05748185 0 0 Z " fill="#977D4E" transform="translate(164,94)"/>
<path d="M0 0 C0.99 0.33 1.98 0.66 3 1 C2.56821231 6.63051143 0.39928773 9.87191556 -2.875 14.25 C-3.32230469 14.87390625 -3.76960937 15.4978125 -4.23046875 16.140625 C-6.32127904 19.00238304 -8.02620651 21.017471 -11 23 C-10.50544966 18.22229045 -8.42693375 15.54063555 -5.5 11.8125 C-2.48208184 8.0824074 -2.48208184 8.0824074 0 4 C-4.77135213 7.57851409 -7.29076328 10.68572797 -10 16 C-10.86616491 13.589802 -11.1663451 12.42372482 -10.21484375 10 C-7.31647084 5.46187483 -4.86269159 2.4313458 0 0 Z " fill="#CCC084" transform="translate(147,43)"/>
<path d="M0 0 C0.99 0 1.98 0 3 0 C3.32613281 0.97582031 3.65226562 1.95164063 3.98828125 2.95703125 C4.42922834 4.24234511 4.87066008 5.52749278 5.3125 6.8125 C5.52583984 7.45509766 5.73917969 8.09769531 5.95898438 8.75976562 C7.13806176 12.15621242 8.13406949 14.73919265 11 17 C9.35 17 7.7 17 6 17 C5.32845067 15.71086513 4.66291141 14.41859796 4 13.125 C3.62875 12.40570313 3.2575 11.68640625 2.875 10.9453125 C2 9 2 9 2 7 C1.34 7 0.68 7 0 7 C-0.13277344 7.78246094 -0.26554687 8.56492187 -0.40234375 9.37109375 C-0.57894531 10.38300781 -0.75554687 11.39492188 -0.9375 12.4375 C-1.11152344 13.44683594 -1.28554687 14.45617187 -1.46484375 15.49609375 C-2 18 -2 18 -3 19 C-4.99958364 19.04080783 -7.00045254 19.04254356 -9 19 C-9 18.34 -9 17.68 -9 17 C-8.39671875 16.82726562 -7.7934375 16.65453125 -7.171875 16.4765625 C-3.8897182 14.24516813 -3.31877355 11.01824065 -2.25 7.375 C-1.91935547 6.31539062 -1.91935547 6.31539062 -1.58203125 5.234375 C-1.04103208 3.49376899 -0.51868828 1.74738429 0 0 Z " fill="#EAE29C" transform="translate(84,44)"/>
<path d="M0 0 C1.76953125 1.3359375 1.76953125 1.3359375 3 3 C3.1875 6.1875 3.1875 6.1875 3 9 C2.01 8.67 1.02 8.34 0 8 C-0.33 6.35 -0.66 4.7 -1 3 C-8.81821285 2.4314027 -14.45627337 3.98229529 -20.5 9.12890625 C-23.97462939 12.50887426 -27.05001328 15.507884 -29 20 C-29.99 20 -30.98 20 -32 20 C-28.97231042 11.07380638 -20.95457632 5.16766522 -12.78515625 1.03125 C-8.559727 -0.53328481 -4.41451189 -1.06244783 0 0 Z " fill="#C2B77E" transform="translate(60,110)"/>
<path d="M0 0 C0.66 0 1.32 0 2 0 C2.45164525 7.11341265 1.32797915 11.71546794 -2 18 C-1.05125 18.598125 -0.1025 19.19625 0.875 19.8125 C4 22 4 22 6 25 C6.25760279 27.69452521 6.08900053 30.28548375 6 33 C5.67 33 5.34 33 5 33 C4.01 29.7 3.02 26.4 2 23 C-0.64 22.67 -3.28 22.34 -6 22 C-7 19 -7 19 -5.8203125 16.58203125 C-4.98113281 15.21111328 -4.98113281 15.21111328 -4.125 13.8125 C-1.36072603 9.00061568 -0.20810919 5.51489363 0 0 Z " fill="#8E6D3E" transform="translate(95,142)"/>
<path d="M0 0 C-1.74418044 5.14074235 -4.78249576 8.47116955 -8.3203125 12.5 C-10.26203495 15.39000551 -10.0761746 16.62111232 -10 20 C-11.3125 22.01953125 -11.3125 22.01953125 -13 23.8125 C-13.556875 24.41707031 -14.11375 25.02164063 -14.6875 25.64453125 C-15.120625 26.09183594 -15.55375 26.53914063 -16 27 C-17.15884085 23.52347745 -16.77936396 22.52995964 -15.6875 19.125 C-15.40648437 18.24328125 -15.12546875 17.3615625 -14.8359375 16.453125 C-13.97581689 13.92903275 -13.0604944 11.44729476 -12 9 C-11.34 9.66 -10.68 10.32 -10 11 C-9.67386719 10.45730469 -9.34773437 9.91460937 -9.01171875 9.35546875 C-8.57472656 8.64003906 -8.13773438 7.92460938 -7.6875 7.1875 C-7.25824219 6.47980469 -6.82898438 5.77210937 -6.38671875 5.04296875 C-2.96367113 0 -2.96367113 0 0 0 Z " fill="#B39C64" transform="translate(147,47)"/>
<path d="M0 0 C0.33 0.99 0.66 1.98 1 3 C1.66 3.33 2.32 3.66 3 4 C2.04882866 5.1725131 1.08882991 6.33787015 0.125 7.5 C-0.40867187 8.1496875 -0.94234375 8.799375 -1.4921875 9.46875 C-2.23855469 10.22671875 -2.23855469 10.22671875 -3 11 C-3.66 11 -4.32 11 -5 11 C-5 11.66 -5 12.32 -5 13 C-6.32 12.67 -7.64 12.34 -9 12 C-8.43452454 8.04167177 -7.42494621 5.20439321 -5 2 C-2.3125 0.6875 -2.3125 0.6875 0 0 Z " fill="#C9BC80" transform="translate(61,144)"/>
<path d="M0 0 C0.33 0.66 0.66 1.32 1 2 C1.66 2.33 2.32 2.66 3 3 C-2.445 4.485 -2.445 4.485 -8 6 C-8 6.66 -8 7.32 -8 8 C-6.35 8.33 -4.7 8.66 -3 9 C-3 10.32 -3 11.64 -3 13 C-4.051875 12.566875 -4.051875 12.566875 -5.125 12.125 C-8.02553186 10.92935663 -8.02553186 10.92935663 -11.25 10.125 C-12.1575 9.75375 -13.065 9.3825 -14 9 C-14.33 7.68 -14.66 6.36 -15 5 C-10.05 3.35 -5.1 1.7 0 0 Z " fill="#A08552" transform="translate(74,61)"/>
<path d="M0 0 C0.66 0.66 1.32 1.32 2 2 C5.08347826 2.16681109 5.08347826 2.16681109 8 2 C5.46478873 4.91549296 5.46478873 4.91549296 2.9375 5.375 C2.298125 5.58125 1.65875 5.7875 1 6 C-0.13545562 8.29534258 -0.13545562 8.29534258 -1 11 C-2.5 13.8125 -2.5 13.8125 -4 16 C-4.66 16 -5.32 16 -6 16 C-6.33 15.34 -6.66 14.68 -7 14 C-7.99 13.67 -8.98 13.34 -10 13 C-9.52949219 12.64808594 -9.05898438 12.29617187 -8.57421875 11.93359375 C-4.0289526 8.32937649 -1.8681913 5.4946803 0 0 Z " fill="#E3D996" transform="translate(68,131)"/>
<path d="M0 0 C2.63567806 2.35328398 4.38870933 4.58001086 6 7.6875 C7.61467781 11.09973441 7.61467781 11.09973441 10.25 11.9375 C10.8275 11.958125 11.405 11.97875 12 12 C12 12.66 12 13.32 12 14 C9.1875 14.25 9.1875 14.25 6 14 C3.73599988 11.73599988 3.01741456 10.05224368 2 7 C1.01 9.31 0.02 11.62 -1 14 C-1.33 14 -1.66 14 -2 14 C-2.05437607 12.41705218 -2.09296271 10.83355744 -2.125 9.25 C-2.14820313 8.36828125 -2.17140625 7.4865625 -2.1953125 6.578125 C-1.99139502 3.8864142 -1.36551721 2.30095026 0 0 Z " fill="#E4DA96" transform="translate(142,83)"/>
<path d="M0 0 C1.35550385 2.7110077 1.16917207 4.91339169 1.1875 7.9375 C1.20167969 8.99839844 1.21585938 10.05929688 1.23046875 11.15234375 C1 14 1 14 -1 17 C-1.99 16.67 -2.98 16.34 -4 16 C-4 12.37 -4 8.74 -4 5 C-4.99 5 -5.98 5 -7 5 C-7 4.34 -7 3.68 -7 3 C-5.5459375 2.5359375 -5.5459375 2.5359375 -4.0625 2.0625 C-1.15934208 1.30476658 -1.15934208 1.30476658 0 0 Z " fill="#DED18F" transform="translate(137,143)"/>
<path d="M0 0 C1.0625 1.8125 1.0625 1.8125 2 4 C1 7 1 7 -0.875 8.1875 C-3 9 -3 9 -6 9 C-6 9.66 -6 10.32 -6 11 C-3.03 11.495 -3.03 11.495 0 12 C-0.99 13.32 -1.98 14.64 -3 16 C-3 15.34 -3 14.68 -3 14 C-5.31 13.67 -7.62 13.34 -10 13 C-10.33 11.68 -10.66 10.36 -11 9 C-10.28972656 8.68546875 -9.57945312 8.3709375 -8.84765625 8.046875 C-7.92855469 7.61890625 -7.00945312 7.1909375 -6.0625 6.75 C-5.14597656 6.33234375 -4.22945312 5.9146875 -3.28515625 5.484375 C-0.83550383 4.21446051 -0.83550383 4.21446051 -0.18359375 1.828125 C-0.12300781 1.22484375 -0.06242188 0.6215625 0 0 Z " fill="#A48F5C" transform="translate(139,93)"/>
<path d="M0 0 C3.11811946 2.3724822 4.77391167 3.78477524 5.5 7.6875 C5 10 5 10 2 12 C1.77213542 9.94921875 1.54427083 7.8984375 1.31640625 5.84765625 C1.18113386 3.98859771 1.18113386 3.98859771 0 3 C-6.55816555 3.2223107 -9.32799691 4.43664814 -14 9 C-14.928125 9.8971875 -14.928125 9.8971875 -15.875 10.8125 C-16.24625 11.204375 -16.6175 11.59625 -17 12 C-15.60991124 6.74855359 -12.1957125 4.12699328 -8 1 C-5.11138291 -0.44430855 -3.20352299 -0.37688506 0 0 Z " fill="#BCAA70" transform="translate(155,131)"/>
<path d="M0 0 C0 3.43337673 -0.32050193 3.71897 -2.5546875 6.1015625 C-3.35326172 6.96007812 -3.35326172 6.96007812 -4.16796875 7.8359375 C-4.73128906 8.42632812 -5.29460938 9.01671875 -5.875 9.625 C-6.70837891 10.5221875 -6.70837891 10.5221875 -7.55859375 11.4375 C-11.70292511 15.85146255 -11.70292511 15.85146255 -14 17 C-13.48371487 12.70268554 -12.15135128 10.54903467 -9.25 7.375 C-8.57453125 6.61960938 -7.8990625 5.86421875 -7.203125 5.0859375 C-4.9518038 2.95436743 -2.71040017 1.48787702 0 0 Z " fill="#1C1A16" transform="translate(50,133)"/>
<path d="M0 0 C1.37140038 0.01987537 2.7426453 0.05555764 4.11328125 0.10546875 C4.81517578 0.11900391 5.51707031 0.13253906 6.24023438 0.14648438 C7.96907954 0.18176693 9.6975289 0.23557292 11.42578125 0.29296875 C9.70423337 4.05784917 7.43344011 6.44360772 4.42578125 9.29296875 C3.76578125 8.63296875 3.10578125 7.97296875 2.42578125 7.29296875 C3.74578125 5.64296875 5.06578125 3.99296875 6.42578125 2.29296875 C-0.00921875 2.78796875 -0.00921875 2.78796875 -6.57421875 3.29296875 C-3.57421875 0.29296875 -3.57421875 0.29296875 0 0 Z " fill="#927748" transform="translate(96.57421875,58.70703125)"/>
<path d="M0 0 C0.99 0 1.98 0 3 0 C3.67305018 1.60149886 4.33822227 3.20631029 5 4.8125 C5.37125 5.70582031 5.7425 6.59914063 6.125 7.51953125 C7 10 7 10 7 13 C4.69 13 2.38 13 0 13 C-0.33 12.34 -0.66 11.68 -1 11 C-0.34 10.34 0.32 9.68 1 9 C1.66 9.33 2.32 9.66 3 10 C2.505 8.906875 2.01 7.81375 1.5 6.6875 C0 3 0 3 0 0 Z " fill="#AC9660" transform="translate(152,103)"/>
<path d="M0 0 C0.66 0.33 1.32 0.66 2 1 C-2.86963642 6.47563562 -7.75055649 11.8851576 -13 17 C-13.66 16.67 -14.32 16.34 -15 16 C-14.48050781 15.41992188 -13.96101563 14.83984375 -13.42578125 14.2421875 C-8.69141478 8.94306927 -8.69141478 8.94306927 -4.125 3.5 C-2 1 -2 1 0 0 Z " fill="#AF9962" transform="translate(52,134)"/>
<path d="M0 0 C1.65 0.33 3.3 0.66 5 1 C5 1.66 5 2.32 5 3 C4.29875 3.37125 3.5975 3.7425 2.875 4.125 C-1.08198906 6.70564504 -3.34011813 10.15185475 -6 14 C-6.33 13.01 -6.66 12.02 -7 11 C-5.56640625 8.30078125 -5.56640625 8.30078125 -3.5625 5.3125 C-2.57443359 3.82169922 -2.57443359 3.82169922 -1.56640625 2.30078125 C-1.04949219 1.54152344 -0.53257813 0.78226562 0 0 Z " fill="#DAD08F" transform="translate(83,78)"/>
<path d="M0 0 C0.66 0.66 1.32 1.32 2 2 C1.71125 2.4846875 1.4225 2.969375 1.125 3.46875 C-1.72856297 8.62101647 -2.41931138 12.12964063 -2 18 C-2.99 18 -3.98 18 -5 18 C-5.55797683 11.30427803 -4.61897757 6.69734622 -1 1 C-0.67 0.67 -0.34 0.34 0 0 Z " fill="#826034" transform="translate(123,156)"/>
<path d="M0 0 C1.32 0.33 2.64 0.66 4 1 C4.05418326 3.08304538 4.09287551 5.16649768 4.125 7.25 C4.14820312 8.41015625 4.17140625 9.5703125 4.1953125 10.765625 C4 14 4 14 2 18 C1.34 12.06 0.68 6.12 0 0 Z " fill="#B19F69" transform="translate(71,71)"/>
<path d="M0 0 C-1.40398279 4.10110762 -3.37087038 6.98089159 -6.125 10.3125 C-6.84945312 11.19550781 -7.57390625 12.07851563 -8.3203125 12.98828125 C-9.15175781 13.98408203 -9.15175781 13.98408203 -10 15 C-10.33 14.34 -10.66 13.68 -11 13 C-5.503861 0 -5.503861 0 0 0 Z " fill="#22221D" transform="translate(147,47)"/>
<path d="M0 0 C1.46067199 0.45082469 2.91848032 0.91093537 4.375 1.375 C5.18710938 1.63023438 5.99921875 1.88546875 6.8359375 2.1484375 C9 3 9 3 11 5 C11 5.99 11 6.98 11 8 C9.56068883 7.54738642 8.12361001 7.08767021 6.6875 6.625 C5.88699219 6.36976562 5.08648437 6.11453125 4.26171875 5.8515625 C2 5 2 5 -1 3 C-0.34 3 0.32 3 1 3 C0.67 2.01 0.34 1.02 0 0 Z " fill="#B7A973" transform="translate(87,78)"/>
<path d="M0 0 C0.66 0.66 1.32 1.32 2 2 C1.27683594 2.68835938 1.27683594 2.68835938 0.5390625 3.390625 C-0.09257813 4.00421875 -0.72421875 4.6178125 -1.375 5.25 C-2.00148438 5.85328125 -2.62796875 6.4565625 -3.2734375 7.078125 C-4.97310161 8.9700588 -5.98459866 10.68201309 -7 13 C-7.99 13 -8.98 13 -10 13 C-8.65515286 8.95838045 -6.9494838 6.61321846 -3.875 3.6875 C-3.15054688 2.99011719 -2.42609375 2.29273437 -1.6796875 1.57421875 C-1.12539063 1.05472656 -0.57109375 0.53523438 0 0 Z " fill="#85673B" transform="translate(38,117)"/>
<path d="M0 0 C1.875 0.25 1.875 0.25 4 1 C5.125 2.875 5.125 2.875 6 5 C6.99 6.485 6.99 6.485 8 8 C4.6690697 8.37010337 3.37268777 8.27461204 0.625 6.25 C-1 4 -1 4 -0.75 1.75 C-0.5025 1.1725 -0.255 0.595 0 0 Z " fill="#836D45" transform="translate(39,81)"/>
<path d="M0 0 C2.79352638 2.26974019 3.90883564 3.37487294 4.4375 7 C3.965678 10.23535087 3.19007834 11.62741513 1 14 C-0.32 13.67 -1.64 13.34 -3 13 C-2.360625 12.443125 -1.72125 11.88625 -1.0625 11.3125 C1.19680987 8.77933439 1.63149047 7.31658576 2 4 C1.34 4 0.68 4 0 4 C0 2.68 0 1.36 0 0 Z " fill="#8F7244" transform="translate(111,115)"/>
<path d="M0 0 C-1.40976705 3.03852705 -3.08870228 5.5939595 -5.125 8.25 C-5.66382813 8.95640625 -6.20265625 9.6628125 -6.7578125 10.390625 C-7.16773438 10.92171875 -7.57765625 11.4528125 -8 12 C-8.70703125 10.265625 -8.70703125 10.265625 -9 8 C-7.63671875 5.859375 -7.63671875 5.859375 -5.6875 3.75 C-5.05199219 3.04359375 -4.41648438 2.3371875 -3.76171875 1.609375 C-2 0 -2 0 0 0 Z " fill="#D5C888" transform="translate(145,54)"/>
<path d="M0 0 C0.99 0.33 1.98 0.66 3 1 C2.54663921 5.87362847 1.2910841 8.39042389 -2 12 C-2.66 11.34 -3.32 10.68 -4 10 C-3.2575 9.1028125 -3.2575 9.1028125 -2.5 8.1875 C-0.71723582 6.02970006 -0.71723582 6.02970006 -1 3 C-0.34 3 0.32 3 1 3 C0.67 2.01 0.34 1.02 0 0 Z " fill="#967B4B" transform="translate(147,43)"/>
<path d="M0 0 C0.33 0 0.66 0 1 0 C1 2.31 1 4.62 1 7 C1.99 6.67 2.98 6.34 4 6 C4 6.66 4 7.32 4 8 C3.01 8 2.02 8 1 8 C1 9.98 1 11.96 1 14 C0.34 13.67 -0.32 13.34 -1 13 C-1.02686553 11.02090602 -1.04633375 9.04171029 -1.0625 7.0625 C-1.07410156 5.96035156 -1.08570313 4.85820313 -1.09765625 3.72265625 C-1 1 -1 1 0 0 Z " fill="#C1AD71" transform="translate(138,106)"/>
<path d="M0 0 C1 3 1 3 0 6 C0.33 6.66 0.66 7.32 1 8 C-0.98 8 -2.96 8 -5 8 C-3.375 2.25 -3.375 2.25 0 0 Z " fill="#9E814D" transform="translate(93,155)"/>
<path d="M0 0 C0.99 0.33 1.98 0.66 3 1 C1.8553125 1.8971875 1.8553125 1.8971875 0.6875 2.8125 C-1.3483575 4.46959332 -3.1978279 6.10297674 -5 8 C-5.99 7.67 -6.98 7.34 -8 7 C-6.74057614 5.80040625 -5.46704714 4.61560557 -4.1875 3.4375 C-3.12595703 2.44556641 -3.12595703 2.44556641 -2.04296875 1.43359375 C-1.36878906 0.96050781 -0.69460937 0.48742187 0 0 Z " fill="#A9915C" transform="translate(47,132)"/>
<path d="M0 0 C2.54563558 2.14788002 3.87986066 3.27916395 4.4375 6.625 C4.293125 7.40875 4.14875 8.1925 4 9 C3.01 9.66 2.02 10.32 1 11 C0.67 7.37 0.34 3.74 0 0 Z " fill="#8D6939" transform="translate(156,132)"/>
<path d="M0 0 C-1.66220581 1.00739746 -3.33020674 2.00522955 -5 3 C-5.60070313 3.37125 -6.20140625 3.7425 -6.8203125 4.125 C-8.51172339 5.14409275 -10.25398763 6.07757837 -12 7 C-12.66 6.67 -13.32 6.34 -14 6 C-5.00826446 -1.66942149 -5.00826446 -1.66942149 0 0 Z " fill="#B69F66" transform="translate(53,111)"/>
<path d="M0 0 C1.09658936 3.28976808 0.79953138 4.71303767 0 8 C-0.66 8 -1.32 8 -2 8 C-2.33 9.32 -2.66 10.64 -3 12 C-3.66 11.67 -4.32 11.34 -5 11 C-4.731875 10.484375 -4.46375 9.96875 -4.1875 9.4375 C-2.67650593 6.33598585 -1.34427274 3.17737194 0 0 Z " fill="#A8915D" transform="translate(129,146)"/>
<path d="M0 0 C0.66 0.99 1.32 1.98 2 3 C3.32381517 4.67423683 4.65576661 6.34211215 6 8 C4.35 8 2.7 8 1 8 C0.01 5.69 -0.98 3.38 -2 1 C-1.34 0.67 -0.68 0.34 0 0 Z " fill="#C8B97C" transform="translate(89,53)"/>
<path d="M0 0 C2.79908133 2.79908133 2.72362983 5.13081763 3 9 C2.34 9.66 1.68 10.32 1 11 C-0.98362069 8.08291076 -0.9876191 6.87619096 -0.625 3.25 C-0.41875 2.1775 -0.2125 1.105 0 0 Z " fill="#84673B" transform="translate(96,117)"/>
<path d="M0 0 C2.29633824 3.44450737 2.54016485 5.93812283 3 10 C2.01 9.67 1.02 9.34 0 9 C-1.15941038 5.52176885 -0.70820884 3.54104422 0 0 Z " fill="#D6CB8B" transform="translate(86,44)"/>
<path d="M0 0 C0.33 0.99 0.66 1.98 1 3 C-0.40445835 5.2636564 -2.1967913 7.0208685 -4 9 C-4.66 8.67 -5.32 8.34 -6 8 C-4.02 5.36 -2.04 2.72 0 0 Z " fill="#353327" transform="translate(61,144)"/>
<path d="M0 0 C0.66 0 1.32 0 2 0 C3.46726798 3.81489674 2.43336419 6.29011622 1 10 C0.67 10 0.34 10 0 10 C0 6.7 0 3.4 0 0 Z " fill="#C6B77C" transform="translate(140,87)"/>
<path d="M0 0 C0.66 0.66 1.32 1.32 2 2 C0.68 4.64 -0.64 7.28 -2 10 C-2.33 10 -2.66 10 -3 10 C-2.25 2.25 -2.25 2.25 0 0 Z " fill="#927343" transform="translate(123,156)"/>
<path d="M0 0 C0.33 0 0.66 0 1 0 C1.36923077 6.52307692 1.36923077 6.52307692 -0.5 8.9375 C-0.995 9.288125 -1.49 9.63875 -2 10 C-3 8 -3 8 -2.44140625 6.0546875 C-2.15136719 5.33539063 -1.86132812 4.61609375 -1.5625 3.875 C-1.27503906 3.15054688 -0.98757812 2.42609375 -0.69140625 1.6796875 C-0.46324219 1.12539062 -0.23507813 0.57109375 0 0 Z " fill="#D9CE8E" transform="translate(61,115)"/>
<path d="M0 0 C0.33 0 0.66 0 1 0 C1 1.65 1 3.3 1 5 C-0.65 5 -2.3 5 -4 5 C-4.33 4.34 -4.66 3.68 -5 3 C-4.34 2.34 -3.68 1.68 -3 1 C-2.01 1.33 -1.02 1.66 0 2 C0 1.34 0 0.68 0 0 Z " fill="#B6A169" transform="translate(156,111)"/>
<path d="M0 0 C2.4375 0.75 2.4375 0.75 5 2 C5.8125 4.125 5.8125 4.125 6 6 C3.5625 5.25 3.5625 5.25 1 4 C0.1875 1.875 0.1875 1.875 0 0 Z " fill="#AD9862" transform="translate(92,80)"/>
<path d="M0 0 C0.33 0 0.66 0 1 0 C1.33 2.64 1.66 5.28 2 8 C0.68 8.99 -0.64 9.98 -2 11 C-1.34 7.37 -0.68 3.74 0 0 Z " fill="#886C41" transform="translate(132,63)"/>
<path d="M0 0 C0 1.65 0 3.3 0 5 C-1.32 5 -2.64 5 -4 5 C-4.33 3.68 -4.66 2.36 -5 1 C-1.125 0 -1.125 0 0 0 Z " fill="#88673A" transform="translate(64,65)"/>
<path d="M0 0 C0.33 0.99 0.66 1.98 1 3 C0 4 0 4 -3.0625 4.0625 C-4.5165625 4.0315625 -4.5165625 4.0315625 -6 4 C-6 3.34 -6 2.68 -6 2 C-2.25 0 -2.25 0 0 0 Z " fill="#CDC183" transform="translate(81,59)"/>
<path d="M0 0 C0 0.66 0 1.32 0 2 C-1.96147874 3.38938077 -3.96166576 4.7260411 -6 6 C-6.66 5.34 -7.32 4.68 -8 4 C-3.375 0 -3.375 0 0 0 Z " fill="#B4A16A" transform="translate(148,44)"/>
<path d="M0 0 C0.94875 0.350625 1.8975 0.70125 2.875 1.0625 C2.875 1.7225 2.875 2.3825 2.875 3.0625 C0 3.25 0 3.25 -3.125 3.0625 C-3.785 2.0725 -4.445 1.0825 -5.125 0.0625 C-3.125 -0.9375 -3.125 -0.9375 0 0 Z " fill="#CDBF82" transform="translate(151.125,93.9375)"/>
<path d="M0 0 C1.98 0.99 1.98 0.99 4 2 C3.42655063 4.86724686 3.1385485 5.8614515 1 8 C0.67 5.36 0.34 2.72 0 0 Z " fill="#BDB57E" transform="translate(66,127)"/>
<path d="M0 0 C0 1.65 0 3.3 0 5 C-1.32 4.67 -2.64 4.34 -4 4 C-4 3.01 -4 2.02 -4 1 C-2 0 -2 0 0 0 Z " fill="#957341" transform="translate(132,101)"/>
<path d="M0 0 C0.33 0.66 0.66 1.32 1 2 C1.66 2.33 2.32 2.66 3 3 C0.36 3.33 -2.28 3.66 -5 4 C-5 3.34 -5 2.68 -5 2 C-3.35 1.34 -1.7 0.68 0 0 Z " fill="#B6A26A" transform="translate(74,61)"/>
</svg>
