<?xml version="1.0" encoding="UTF-8"?>
<svg version="1.1" xmlns="http://www.w3.org/2000/svg" width="1646" height="264">
<path d="M0 0 C543.18 0 1086.36 0 1646 0 C1646 87.12 1646 174.24 1646 264 C1102.82 264 559.64 264 0 264 C0 176.88 0 89.76 0 0 Z " fill="#1F1F1F" transform="translate(0,0)"/>
<path d="M0 0 C1.35248459 1.14441004 2.68724169 2.31022923 4 3.5 C4.62261719 4.04269531 5.24523438 4.58539063 5.88671875 5.14453125 C16.18998825 14.68790669 20.63530951 27.42229168 21.2734375 41.22265625 C21.5648699 52.12487747 21.19020747 60.69780446 16 70.5 C15.56558594 71.3765625 15.13117188 72.253125 14.68359375 73.15625 C6.85422086 87.61047688 -5.55823189 95.20570703 -20.60546875 100.51953125 C-36.42051562 105.08751372 -56.16349726 103.75084133 -70.8125 96.375 C-85.10979484 88.0246781 -94.82731697 76.17427107 -100 60.5 C-103.06847096 41.9775935 -101.08669059 25.15308988 -90 9.5 C-68.27261269 -16.82751469 -26.93366862 -20.36111809 0 0 Z " fill="#D55498" transform="translate(1476,129.5)"/>
<path d="M0 0 C10.43197956 8.94984039 18.61959991 21.32838013 19.765625 35.3671875 C19.7965625 36.11742187 19.8275 36.86765625 19.859375 37.640625 C19.9109375 38.67960937 19.9625 39.71859375 20.015625 40.7890625 C20.45875979 57.51740072 15.97071904 72.03716397 4.44897461 84.40454102 C-7.56334008 96.43283218 -24.41255364 101.82848218 -41.140625 101.890625 C-58.00850364 101.83178784 -73.96158986 97.45713897 -86.4375 85.55078125 C-97.30649261 73.36055788 -102.75007454 59.65827346 -102.640625 43.328125 C-102.63490479 42.32628174 -102.62918457 41.32443848 -102.62329102 40.29223633 C-102.23890551 24.24770067 -95.25813502 11.850993 -83.7890625 0.8125 C-59.83749598 -18.82919762 -24.42101478 -18.34613548 0 0 Z " fill="#D55498" transform="translate(1073.140625,130.359375)"/>
<path d="M0 0 C16.5 0 33 0 50 0 C50 6.78697338 49.40611809 8.74572015 45.6875 13.75 C39.01924876 22.72608301 37.55992378 32.35718528 37.48828125 43.35546875 C37.47164429 44.26832642 37.45500732 45.18118408 37.43786621 46.1217041 C37.38076925 49.47674381 37.34799103 52.83216218 37.3125 56.1875 C37.209375 63.715625 37.10625 71.24375 37 79 C60.76 79 84.52 79 109 79 C108.938125 70.8325 108.87625 62.665 108.8125 54.25 C108.80581299 51.69668945 108.79912598 49.14337891 108.79223633 46.51269531 C108.76575148 44.45114636 108.73746571 42.38961943 108.70703125 40.328125 C108.71101929 39.28833496 108.71500732 38.24854492 108.71911621 37.17724609 C108.51424648 26.42347073 104.78616785 17.62183902 98.13671875 9.23046875 C97 7 97 7 97 0 C113.5 0 130 0 147 0 C147 7.78337531 147 7.78337531 144.3125 10.6875 C134.28805977 23.1035927 135.29013598 36.26276156 135.40625 51.48046875 C135.40796355 53.86314331 135.40789294 56.24581975 135.40612793 58.62849426 C135.40777524 63.60367046 135.42636918 68.57839283 135.45800781 73.5534668 C135.4977477 79.91521125 135.50204157 86.27636425 135.49454498 92.63820934 C135.49146942 97.55143099 135.50361573 102.46452086 135.52067566 107.37771034 C135.52768121 109.72314947 135.53083317 112.06860352 135.52998352 114.41405296 C135.53179024 117.69452086 135.55324561 120.974292 135.58007812 124.25463867 C135.57714752 125.21330841 135.57421692 126.17197815 135.57119751 127.15969849 C135.67144983 135.14256718 137.52137444 141.95821456 141.5625 148.875 C141.97628906 149.59429687 142.39007812 150.31359375 142.81640625 151.0546875 C143.83543246 152.72952265 144.9125206 154.3687809 146 156 C146 158.31 146 160.62 146 163 C129.83 163 113.66 163 97 163 C97 155.19875776 97 155.19875776 100.3125 151.125 C103.7232945 146.59794549 105.67561667 142.49109706 107 137 C107.16894775 136.3311377 107.33789551 135.66227539 107.51196289 134.97314453 C108.20339708 130.76089562 108.23671617 126.58676124 108.31640625 122.32421875 C108.33505737 121.50360962 108.3537085 120.68300049 108.3729248 119.83752441 C108.44095084 116.78762027 108.50127244 113.7375482 108.5625 110.6875 C108.706875 103.860625 108.85125 97.03375 109 90 C85.57 90 62.14 90 38 90 C38.061875 97.156875 38.12375 104.31375 38.1875 111.6875 C38.19418701 113.91846436 38.20087402 116.14942871 38.20776367 118.44799805 C38.34422564 130.8165629 38.92282439 141.65426327 46.8125 151.8125 C49 155 49 155 49 163 C32.83 163 16.66 163 0 163 C0 155.23173804 0 155.23173804 2.6875 152.375 C12.69312246 140.00377352 11.71147957 125.97084768 11.59375 110.89453125 C11.59203593 108.56052207 11.59210759 106.22651097 11.59387207 103.89250183 C11.59222586 99.02165084 11.57365239 94.151264 11.54199219 89.28051758 C11.50225124 83.05678014 11.49795933 76.83364734 11.50545502 70.60980701 C11.50853271 65.79777041 11.49637677 60.98586816 11.47932434 56.17386436 C11.47232617 53.87949148 11.46916592 51.58510339 11.47001648 49.29071999 C11.46820679 46.08001074 11.44672656 42.87000961 11.41992188 39.65942383 C11.42431778 38.25722092 11.42431778 38.25722092 11.42880249 36.82669067 C11.32081064 28.38832999 9.49829745 20.68529726 4.9375 13.5 C4.43089844 12.6853125 3.92429687 11.870625 3.40234375 11.03125 C2.02306928 8.90295896 2.02306928 8.90295896 0 7 C0 4.69 0 2.38 0 0 Z " fill="#D45397" transform="translate(808,67)"/>
<path d="M0 0 C38.28 0 76.56 0 116 0 C116 9.9 116 19.8 116 30 C103.68022181 30 103.68022181 30 98.5 26.3125 C97.38955708 25.56866186 96.27623358 24.82910709 95.16015625 24.09375 C94.11730469 23.4028125 93.07445312 22.711875 92 22 C75.10621115 12.33171292 56.1150344 11.79645977 37 11 C37 33.44 37 55.88 37 79 C48.55 79 60.1 79 72 79 C72 82.3 72 85.6 72 89 C60.45 89 48.9 89 37 89 C37 109.79 37 130.58 37 152 C73.30232087 150.59865273 73.30232087 150.59865273 105 133 C107.01964199 132.92755947 109.04167124 132.91622812 111.0625 132.9375 C112.16722656 132.94652344 113.27195312 132.95554688 114.41015625 132.96484375 C115.69212891 132.98224609 115.69212891 132.98224609 117 133 C116.85852385 136.12521271 116.71098753 139.25011319 116.5625 142.375 C116.52318359 143.24511719 116.48386719 144.11523438 116.44335938 145.01171875 C116.40146484 145.88183594 116.35957031 146.75195312 116.31640625 147.6484375 C116.27974854 148.43395996 116.24309082 149.21948242 116.20532227 150.02880859 C115.9059604 154.36083469 115.43208071 158.67919292 115 163 C77.05 163 39.1 163 0 163 C0 155.23267327 0 155.23267327 2.75 152.3125 C9.89680307 143.66199604 11.14455725 132.27838106 11.17700195 121.45898438 C11.18357315 120.50377899 11.19014435 119.54857361 11.19691467 118.56442261 C11.21660034 115.40753085 11.22830221 112.25068666 11.23828125 109.09375 C11.24235678 108.01130508 11.2464323 106.92886017 11.25063133 105.81361389 C11.27147585 100.07984612 11.28578238 94.34610213 11.29516602 88.61230469 C11.30620331 82.71596175 11.34057721 76.819999 11.38033772 70.92378998 C11.40660027 66.36815737 11.41486659 61.81261386 11.41844749 57.25691223 C11.42329162 55.08500106 11.43484282 52.91309328 11.45348549 50.74125671 C11.72967101 30.33885135 11.72967101 30.33885135 3.25 12.125 C-0.29646839 7.37154027 0 6.706166 0 0 Z " fill="#D65498" transform="translate(248,67)"/>
<path d="M0 0 C9.77777495 8.11796747 18.07449409 20.36950585 20.28125 33.0390625 C20.28125 36.6690625 20.28125 40.2990625 20.28125 44.0390625 C-10.73875 44.0390625 -41.75875 44.0390625 -73.71875 44.0390625 C-67.18702801 64.45904975 -67.18702801 64.45904975 -55.71875 82.0390625 C-55.14640625 82.71710938 -54.5740625 83.39515625 -53.984375 84.09375 C-48.00832717 90.63776932 -41.01321783 95.29255402 -32.1171875 96.546875 C-23.88742737 96.81121419 -17.94916662 95.90313376 -11.82421875 90.30859375 C-5.1328245 83.25093371 -2.50796043 75.43241726 -0.71875 66.0390625 C4.89125 66.0390625 10.50125 66.0390625 16.28125 66.0390625 C13.78542187 78.51820316 4.33946622 87.77690702 -5.84375 94.8515625 C-20.3523056 103.39076817 -37.02332355 105.61741199 -53.5078125 102.26953125 C-56.36496987 101.36175087 -59.00865444 100.31440159 -61.71875 99.0390625 C-62.42515625 98.7503125 -63.1315625 98.4615625 -63.859375 98.1640625 C-79.80071453 91.13481042 -88.07488273 77.70382308 -94.85546875 62.48828125 C-99.17042045 50.24631421 -97.80352014 33.52396536 -92.53173828 21.79956055 C-89.02951911 14.50701437 -84.52124022 8.66970197 -78.71875 3.0390625 C-78.08195312 2.39324219 -77.44515625 1.74742187 -76.7890625 1.08203125 C-55.29360972 -19.38770491 -22.68436187 -16.36142192 0 0 Z " fill="#D55498" transform="translate(585.71875,128.9609375)"/>
<path d="M0 0 C11.88 0 23.76 0 36 0 C36 4.29 36 8.58 36 13 C36.83144531 12.57847656 37.66289063 12.15695313 38.51953125 11.72265625 C40.14955078 10.90087891 40.14955078 10.90087891 41.8125 10.0625 C42.89144531 9.51722656 43.97039062 8.97195312 45.08203125 8.41015625 C50.8277129 5.63346137 55.78882078 5.74657419 62.0625 5.6875 C63.56200195 5.64399414 63.56200195 5.64399414 65.09179688 5.59960938 C75.91929535 5.50814902 83.85302112 8.7585973 91.671875 16.2578125 C103.91461485 30.67795239 104.44874411 48.49903969 104.43579102 66.42797852 C104.45463605 78.54784827 105.42195256 89.16524755 112.1875 99.6875 C112.69667969 100.49574219 113.20585938 101.30398437 113.73046875 102.13671875 C114.86700126 103.9290717 114.86700126 103.9290717 116 105 C116 107.31 116 109.62 116 112 C99.83 112 83.66 112 67 112 C67 104.17821782 67 104.17821782 69.75 100.625 C75.94410981 92.04403464 78.15237843 84.30696524 78.16796875 73.76953125 C78.17129715 72.97906906 78.17462555 72.18860687 78.17805481 71.37419128 C78.1831047 69.70413797 78.18546374 68.03407462 78.18530273 66.36401367 C78.18747786 63.83820454 78.20562262 61.3128407 78.22460938 58.78710938 C78.2737006 45.3144422 77.90368189 33.61066261 68.296875 23.14453125 C62.40518022 17.7703502 56.35424745 15.39760662 48.37109375 15.640625 C44.8274507 16.17771752 42.66390852 17.66908005 40 20 C37.71903426 23.4214486 37.73488644 24.70722836 37.69360352 28.73388672 C37.67761612 29.912966 37.66162872 31.09204529 37.64515686 32.30685425 C37.63979416 33.58488922 37.63443146 34.86292419 37.62890625 36.1796875 C37.61987778 37.49856964 37.6108493 38.81745178 37.60154724 40.17630005 C37.5850455 42.97563109 37.57735684 45.77484254 37.57446289 48.57421875 C37.56912246 52.125805 37.53163254 55.67623006 37.48571873 59.22749138 C37.45563885 61.98513635 37.44873251 64.74251442 37.44773674 67.50030899 C37.44158838 69.43487964 37.41225597 71.36933322 37.38221741 73.30368042 C37.43845359 84.50516347 40.03285361 94.69990988 47.86328125 103.0234375 C49 105 49 105 49 112 C32.83 112 16.66 112 0 112 C0 104.20703934 0 104.20703934 3.3125 99.6875 C9.76941227 90.84816307 10.46054706 81.59813425 10.43359375 70.94140625 C10.4388356 69.71646957 10.44407745 68.4915329 10.44947815 67.22947693 C10.45587073 64.65193435 10.45459744 62.07436249 10.44604492 59.49682617 C10.43753242 55.57742848 10.46634287 51.65948863 10.49804688 47.74023438 C10.4996592 45.22395877 10.49908076 42.7076806 10.49609375 40.19140625 C10.50732773 39.03274551 10.51856171 37.87408478 10.53013611 36.68031311 C10.43975541 26.00457229 7.84069755 17.65117415 1.171875 9.265625 C0 7 0 7 0 0 Z " fill="#D55498" transform="translate(1513,118)"/>
<path d="M0 0 C12.21 0 24.42 0 37 0 C37 3.96 37 7.92 37 12 C37.83144531 11.65066406 38.66289063 11.30132812 39.51953125 10.94140625 C40.60621094 10.48636719 41.69289063 10.03132812 42.8125 9.5625 C43.89144531 9.11003906 44.97039063 8.65757813 46.08203125 8.19140625 C55.65864336 4.28127681 69.32200588 4.3055971 79.1875 7.4375 C89.44930588 12.13743962 96.16435796 20.33108535 100.25878906 30.74755859 C104.26066373 42.90872318 104.43979271 54.68500048 104.36035156 67.33203125 C104.31098872 80.38576109 105.32253321 93.08526771 114.86328125 103.05859375 C116 105 116 105 116 112 C99.83 112 83.66 112 67 112 C67 104.36099339 67.63006511 103.46425927 72.078125 98.11328125 C78.55332739 87.62397982 78.65896806 76.75976175 78.57641602 64.80957031 C78.56252307 62.00465693 78.59675247 59.20307234 78.63476562 56.3984375 C78.69112723 43.35549517 77.23202824 32.47163526 67.83203125 22.62109375 C61.98566575 17.44787054 55.93756932 15.63498696 48.25390625 15.7109375 C44.75452604 16.1597315 42.63863364 17.74750787 40 20 C37.71903426 23.4214486 37.73488644 24.70722836 37.69360352 28.73388672 C37.67761612 29.912966 37.66162872 31.09204529 37.64515686 32.30685425 C37.63979416 33.58488922 37.63443146 34.86292419 37.62890625 36.1796875 C37.61987778 37.49856964 37.6108493 38.81745178 37.60154724 40.17630005 C37.5850455 42.97563109 37.57735684 45.77484254 37.57446289 48.57421875 C37.56912246 52.125805 37.53163254 55.67623006 37.48571873 59.22749138 C37.45563885 61.98513635 37.44873251 64.74251442 37.44773674 67.50030899 C37.44158838 69.43487964 37.41225597 71.36933322 37.38221741 73.30368042 C37.43845359 84.50516347 40.03285361 94.69990988 47.86328125 103.0234375 C49 105 49 105 49 112 C32.83 112 16.66 112 0 112 C0 104.19254658 0 104.19254658 3.3125 99.625 C9.63764068 90.84671251 10.45355681 82.61428279 10.3984375 72.00390625 C10.40130768 70.77518295 10.40417786 69.54645966 10.40713501 68.28050232 C10.40916836 65.69277483 10.40368979 63.10503171 10.39111328 60.51733398 C10.37506421 56.57825995 10.39098098 52.64021409 10.41015625 48.70117188 C10.40817342 46.17708109 10.40432893 43.65299094 10.3984375 41.12890625 C10.40451019 39.96194717 10.41058289 38.7949881 10.4168396 37.59266663 C10.32586461 26.90078061 8.13248306 18.76358141 2 10 C0 7 0 7 0 0 Z " fill="#D55498" transform="translate(619,118)"/>
<path d="M0 0 C15.30763353 9.16916975 25.24179708 24.30099269 30.25170898 41.1730957 C31.73655734 47.11711072 31.95868682 52.89395943 31.9375 59 C31.95361328 59.92490234 31.96972656 60.84980469 31.98632812 61.80273438 C31.99403982 72.80732049 29.02947991 81.79294224 21.625 90.0625 C14.1811946 96.01754432 7.01745132 96.98564379 -2.375 96.0625 C-15.69329813 92.03121881 -24.00272956 80.75577799 -30.375 69.0625 C-37.80667832 53.99578897 -42.40242743 35.47416038 -38.62109375 18.72265625 C-35.73875842 10.48256819 -31.5198988 4.15178986 -24.375 -0.9375 C-17.09431702 -3.36439433 -7.00860987 -3.2527998 0 0 Z " fill="#2D2C2D" transform="translate(1440.375,127.9375)"/>
<path d="M0 0 C15.33025505 8.76014574 24.21767835 23.52243409 29.734375 39.9375 C33.48908548 54.18283932 32.64556292 69.82214913 25.77734375 82.9140625 C22.60291192 88.05680958 18.26392781 92.80359207 12.42578125 94.8671875 C3.46726767 96.74107841 -3.97021731 95.69427672 -11.921875 91.1953125 C-26.98537466 80.99783099 -35.69262267 62.80638036 -39.1027832 45.25561523 C-40.87546684 32.4493671 -41.70824581 18.05262633 -34.125 7.015625 C-25.23537483 -3.95625472 -12.90663517 -6.07371067 0 0 Z " fill="#252424" transform="translate(1036.703125,128.6875)"/>
<path d="M0 0 C32.67 0 65.34 0 99 0 C99 5.52531454 97.84119701 7.06716295 94.5 11 C93.48111544 12.24710121 92.46431611 13.49590796 91.44921875 14.74609375 C90.61656494 15.76485596 90.61656494 15.76485596 89.76708984 16.80419922 C86.53108732 20.82528331 83.42953563 24.94898514 80.3125 29.0625 C78.93372493 30.8764018 77.55481697 32.6902026 76.17578125 34.50390625 C75.48436035 35.41414551 74.79293945 36.32438477 74.08056641 37.26220703 C71.38635573 40.8074873 68.6877265 44.3493876 65.98852539 47.89086914 C64.66055478 49.6332905 63.33291916 51.37596722 62.00561523 53.11889648 C58.65164204 57.52295881 55.29407566 61.92420013 51.9296875 66.3203125 C43.1595009 77.78909898 34.53052292 89.3520231 26 101 C31.79874871 100.93068462 37.59680626 100.84250905 43.39501953 100.73754883 C45.36369092 100.70448495 47.33245289 100.67639655 49.30126953 100.65356445 C52.14654814 100.61967492 54.99101039 100.56734529 57.8359375 100.51171875 C58.70302338 100.50532883 59.57010925 100.4989389 60.46347046 100.49235535 C70.92637219 100.24583668 78.86408888 96.81693334 87.7265625 91.42578125 C91 90 91 90 99 90 C99 97.26 99 104.52 99 112 C65.34 112 31.68 112 -3 112 C-3 102.57010869 -2.84593459 100.35978947 2.6875 93.9375 C3.88996028 92.45754888 5.09176506 90.97706497 6.29296875 89.49609375 C6.91091309 88.75085449 7.52885742 88.00561523 8.16552734 87.23779297 C11.03995898 83.73139952 13.76440448 80.11498369 16.5 76.5 C17.58644733 75.07751955 18.67368847 73.65564505 19.76171875 72.234375 C20.29845215 71.53248047 20.83518555 70.83058594 21.38818359 70.10742188 C22.97330405 68.03490449 24.55885644 65.96271828 26.14453125 63.890625 C32.78303449 55.21456136 39.40959858 46.52949752 46.02709961 37.83740234 C49.2910086 33.55126922 52.558465 29.26796086 55.8359375 24.9921875 C56.4340625 24.21166016 57.0321875 23.43113281 57.6484375 22.62695312 C58.77001276 21.16408404 59.89236469 19.70180999 61.015625 18.24023438 C61.51320313 17.59119141 62.01078125 16.94214844 62.5234375 16.2734375 C62.95575684 15.71060059 63.38807617 15.14776367 63.83349609 14.56787109 C64.93939967 13.0814515 65.97231164 11.54153254 67 10 C62.45001094 10.01975898 57.90186628 10.07246739 53.35253906 10.15258789 C51.81292843 10.17543599 50.27316887 10.19008352 48.73339844 10.19555664 C36.16765158 10.24894053 23.20838831 11.45199355 12.5625 18.8125 C9 21 9 21 0 21 C0 14.07 0 7.14 0 0 Z " fill="#D55498" transform="translate(1264,118)"/>
<path d="M0 0 C0 16.83 0 33.66 0 51 C5.61 51 11.22 51 17 51 C17 53.97 17 56.94 17 60 C11.39 60 5.78 60 0 60 C0.04050098 68.54605613 0.09783923 77.09150972 0.18390274 85.6372118 C0.22322235 89.60638264 0.25548604 93.57533678 0.27099609 97.54467773 C0.2862661 101.38345835 0.320891 105.22164259 0.36830902 109.06015587 C0.38301725 110.51633168 0.39103488 111.9725927 0.39188385 113.42884254 C0.40635849 125.82059811 2.16697232 136.71233119 11 146 C12.11586787 146.74306656 13.24055317 147.47311956 14.375 148.1875 C17.64828721 151.69459343 17.375 153.12036415 17.375 157.8125 C17.27878489 159.8765431 17.16285834 161.94014359 17 164 C2.98971075 163.3800757 -7.66779291 158.88539478 -17.3125 148.6875 C-23.0536976 141.63858517 -25.12927339 132.91019235 -25.11352539 124.02832031 C-25.11367142 123.3352327 -25.11381744 122.64214508 -25.1139679 121.92805481 C-25.11327307 119.64471267 -25.10550085 117.36145283 -25.09765625 115.078125 C-25.09579054 113.49200485 -25.09436736 111.90588412 -25.09336853 110.31976318 C-25.08955538 106.15063885 -25.07973537 101.9815495 -25.06866455 97.81243896 C-25.05842457 93.55595371 -25.05386537 89.29946278 -25.04882812 85.04296875 C-25.03811201 76.69529468 -25.02052495 68.34765573 -25 60 C-30.61 60 -36.22 60 -42 60 C-42 57.03 -42 54.06 -42 51 C-36.39 51 -30.78 51 -25 51 C-25 38.13 -25 25.26 -25 12 C-2.5 0 -2.5 0 0 0 Z " fill="#D75499" transform="translate(777,67)"/>
<path d="M0 0 C14.52 0 29.04 0 44 0 C44 6.61316406 43.98911821 7.79496949 40.875 12.71484375 C38.63960895 18.55280698 40.00031001 23.98352742 42.25 29.5625 C42.80351012 30.96479454 43.35688249 32.36714345 43.91015625 33.76953125 C44.23387207 34.57600098 44.55758789 35.3824707 44.89111328 36.21337891 C46.4291573 40.07846794 47.9188354 43.96180086 49.41275024 47.84411621 C55.86034264 64.59460597 62.41737838 81.30218778 69 98 C78.21771446 75.9024946 86.77510008 53.55838457 95.18774414 31.14370728 C95.73667243 29.69497464 96.29605237 28.25016569 96.86499023 26.80917358 C98.84428464 21.74085823 99.52944027 18.3826427 99 13 C98.505 12.175 98.01 11.35 97.5 10.5 C96 8 96 8 96 0 C104.91 0 113.82 0 123 0 C123 8 123 8 121.1015625 10.09375 C120.28429687 10.5578125 119.46703125 11.021875 118.625 11.5 C117.81289063 11.9846875 117.00078125 12.469375 116.1640625 12.96875 C114 14 114 14 112 14 C108.98666025 21.49896291 106.06537096 29.0347062 103.125 36.5625 C102.61259766 37.87418655 102.61259766 37.87418655 102.08984375 39.21237183 C92.63093761 63.43800261 83.31857955 87.72013545 74 112 C65.42 112 56.84 112 48 112 C45.88161998 106.65423656 43.76381281 101.30825348 41.64758301 95.9616394 C40.8830452 94.03018725 40.11831564 92.09881099 39.35339355 90.16751099 C35.02918273 79.2473416 30.72488139 68.32016511 26.484375 57.3671875 C25.94574829 55.97798347 25.94574829 55.97798347 25.39624023 54.56071472 C23.68081827 50.13588592 21.9700902 45.709353 20.26757812 41.27954102 C14.63641089 25.7791142 14.63641089 25.7791142 5.25 12.4375 C4.47140625 11.61121094 3.6928125 10.78492188 2.890625 9.93359375 C1.93086311 8.95201909 0.97072954 7.97072954 0 7 C0 4.69 0 2.38 0 0 Z " fill="#D55498" transform="translate(362,118)"/>
<path d="M0 0 C-0.60299164 7.23589973 -2.1150587 13.99370876 -4 21 C-7.5489984 20.2474413 -10.73041024 18.92037036 -14.0625 17.5 C-21.47064381 14.34993638 -28.3440669 12.27700051 -36.359375 14.71875 C-40.71693335 16.75009299 -43.23086122 18.99451971 -46 23 C-46.60483344 25.83011495 -46.60483344 25.83011495 -46.53344727 28.88500977 C-46.55720177 30.62821251 -46.55720177 30.62821251 -46.58143616 32.40663147 C-46.57647629 33.65560715 -46.57151642 34.90458282 -46.56640625 36.19140625 C-46.57260483 37.48763412 -46.57880341 38.783862 -46.58518982 40.11936951 C-46.59558615 42.86402135 -46.59105167 45.6081547 -46.57641602 48.3527832 C-46.55933964 51.83727255 -46.5825845 55.32009547 -46.61790562 58.80439854 C-46.64543222 62.1626584 -46.63512321 65.52053952 -46.62890625 68.87890625 C-46.64216446 70.11371231 -46.65542267 71.34851837 -46.66908264 72.6207428 C-46.54843726 84.02001057 -43.12081524 92.89517437 -36.13671875 101.8671875 C-35 104 -35 104 -35 110 C-51.5 110 -68 110 -85 110 C-85 103.5519601 -84.87239413 103.3882548 -81 99 C-79.87966097 97.07417131 -78.81714694 95.11363275 -77.8125 93.125 C-77.30332031 92.13757813 -76.79414062 91.15015625 -76.26953125 90.1328125 C-73.39561911 83.04088163 -73.81188219 75.43217023 -73.76171875 67.890625 C-73.753647 66.72803162 -73.74557526 65.56543823 -73.73725891 64.36761475 C-73.7234666 61.91338572 -73.71272289 59.45913791 -73.70483398 57.00488281 C-73.69331079 54.50873142 -73.67285387 52.01260472 -73.64331055 49.51660156 C-73.60044638 45.89110741 -73.58443958 42.26634171 -73.57421875 38.640625 C-73.54795662 36.98694916 -73.54795662 36.98694916 -73.52116394 35.29986572 C-73.54697907 25.96678717 -75.67770863 17.55188155 -81.1875 9.875 C-81.69667969 9.15054688 -82.20585938 8.42609375 -82.73046875 7.6796875 C-83.89398647 6.06009782 -83.89398647 6.06009782 -85 5 C-85 2.69 -85 0.38 -85 -2 C-72.46 -2 -59.92 -2 -47 -2 C-46.505 2.95 -46.505 2.95 -46 8 C-45.33355469 7.54109375 -44.66710938 7.0821875 -43.98046875 6.609375 C-30.11550737 -2.62100488 -16.06343192 -6.76355028 0 0 Z " fill="#D55498" transform="translate(1193,120)"/>
<path d="M0 0 C1.30457153 0.00241699 1.30457153 0.00241699 2.63549805 0.00488281 C13.23484162 0.20323765 23.55070443 2.30596888 32.4375 8.375 C30.4575 10.685 28.4775 12.995 26.4375 15.375 C25.55707031 15.09785156 24.67664063 14.82070312 23.76953125 14.53515625 C22.60808594 14.17292969 21.44664063 13.81070313 20.25 13.4375 C19.10144531 13.07785156 17.95289062 12.71820313 16.76953125 12.34765625 C1.26080695 7.82049054 -13.15349799 10.90307952 -27.2265625 18.296875 C-38.88971872 25.56244773 -46.18671538 36.6773939 -49.87109375 49.75 C-52.64495317 64.29317254 -50.65969592 79.79722172 -42.5625 92.375 C-33.47825916 104.08203312 -22.04954132 112.67534944 -7.140625 115.08984375 C8.46317151 116.81571821 22.8876657 112.97461515 35.64453125 103.78515625 C46.73122812 94.77589015 52.89085984 81.93742019 54.375 67.8125 C54.72478479 59.61754198 53.82171918 51.45640948 50.75 43.8125 C49.40656184 40.29397149 49.24383167 39.69737685 50.4375 36.375 C52.375 33.625 52.375 33.625 54.4375 31.375 C55.0975 31.375 55.7575 31.375 56.4375 31.375 C64.14700128 46.85494723 67.54922492 62.93979126 62.3125 79.75 C56.50410441 96.89889328 46.26642701 110.57430552 30.12890625 119.12890625 C14.39743956 126.67637293 -2.99804476 127.98620361 -19.80078125 122.83984375 C-26.38954076 120.48512747 -31.98441433 116.5147573 -37.5625 112.375 C-38.25859375 111.88128906 -38.9546875 111.38757813 -39.671875 110.87890625 C-52.1700702 101.218604 -59.3736753 85.69677292 -61.5625 70.375 C-62.67133254 57.4707604 -60.15282304 46.84708656 -55.1875 35 C-54.90769287 34.32130859 -54.62788574 33.64261719 -54.33959961 32.94335938 C-52.40404511 28.53237578 -50.16742917 25.66976481 -46.5625 22.375 C-45.86125 21.446875 -45.16 20.51875 -44.4375 19.5625 C-33.81174091 6.72579103 -16.30967629 -0.03174633 0 0 Z " fill="#D55397" transform="translate(98.5625,88.625)"/>
<path d="M0 0 C10.56 0 21.12 0 32 0 C32.029729 3.556604 32.029729 3.556604 32.06005859 7.18505859 C32.12717926 15.04812922 32.20481482 22.91107125 32.28752708 30.77399254 C32.33732128 35.53793847 32.3836519 40.30186403 32.421875 45.06591797 C32.45894214 49.66961141 32.50535822 54.27312701 32.55806351 58.87666702 C32.57649424 60.62675459 32.59164325 62.37688011 32.60334396 64.1270256 C32.68160446 75.43543814 32.9497471 85.95673107 37.5 96.5 C37.9228125 97.5003125 38.345625 98.500625 38.78125 99.53125 C39.88420849 102.09823468 39.88420849 102.09823468 42 104 C42 106.64 42 109.28 42 112 C28.14 112 14.28 112 0 112 C0 105.24570673 0.13746047 103.9931005 3.375 98.6875 C8.94203288 89.55802427 9.31922545 80.20842032 9.37109375 69.73828125 C9.38012222 68.5894194 9.3891507 67.44055756 9.39845276 66.25688171 C9.41288712 63.83737769 9.42182491 61.41783524 9.42553711 58.99829102 C9.43741084 55.33997187 9.48664962 51.68335383 9.53710938 48.02539062 C9.85947934 27.98688866 9.85947934 27.98688866 1.82983398 10.05200195 C0 7 0 7 0 0 Z " fill="#D75499" transform="translate(1205,118)"/>
<path d="M0 0 C13.26467284 6.97819446 21.41934532 19.29422116 27.0625 32.875 C27.0625 33.865 27.0625 34.855 27.0625 35.875 C3.6325 35.875 -19.7975 35.875 -43.9375 35.875 C-43.9375 22.21725534 -43.40604385 12.39247832 -33.94921875 2.56640625 C-23.28231512 -6.40207777 -12.13073651 -5.5599209 0 0 Z " fill="#1C1A1B" transform="translate(554.9375,128.125)"/>
<path d="M0 0 C0.99 0.99 1.98 1.98 3 3 C1.02 4.98 -0.96 6.96 -3 9 C-3.54785156 8.7834375 -4.09570312 8.566875 -4.66015625 8.34375 C-13.37738871 5.28208787 -23.67996022 4.14707824 -32.5625 7.25 C-35.92985637 8.96429052 -38.953655 10.76601367 -42 13 C-42.81597656 13.58007812 -43.63195312 14.16015625 -44.47265625 14.7578125 C-47.32287143 17.28644235 -48.60975058 19.51455845 -50.25 22.9375 C-50.75015625 23.95714844 -51.2503125 24.97679687 -51.765625 26.02734375 C-55.20775618 34.31677991 -55.13199014 42.93006044 -51.875 51.25 C-47.59287804 60.52193355 -41.72551358 66.30602677 -32.2109375 70.1171875 C-23.93421241 72.39278345 -13.59807773 72.28609513 -6 68 C-4.87851563 67.39671875 -4.87851563 67.39671875 -3.734375 66.78125 C4.27793194 62.00570281 8.92275162 55.15381697 11.53515625 46.25 C13.39993667 37.22383595 11.0528533 28.50437704 8 20 C13.75 15 13.75 15 16 15 C16.81752303 16.58074564 17.62881997 18.16471223 18.4375 19.75 C18.88996094 20.63171875 19.34242188 21.5134375 19.80859375 22.421875 C23.83048904 31.12499267 23.45265682 44.07216639 20.375 53.0625 C14.60653476 66.27936948 6.25155866 74.44747274 -7 80 C-17.78984333 84.00546582 -28.16763834 81.62224317 -39 79 C-39 78.34 -39 77.68 -39 77 C-40.3303125 76.62875 -40.3303125 76.62875 -41.6875 76.25 C-51.44736612 72.56703165 -57.62713509 63.3958215 -61.80053711 54.24462891 C-65.70121681 44.88532987 -66.08290279 32.99327367 -62.5234375 23.45703125 C-56.83037055 10.56386524 -48.14880212 2.22058765 -35 -3 C-23.13826703 -7.15461713 -11.05853238 -5.72270991 0 0 Z " fill="#D55397" transform="translate(121,113)"/>
<path d="M0 0 C-3.57136826 4.4228203 -6.27737053 7.24732052 -12.0625 8 C-16.75896737 8.69550738 -19.16176575 9.96585384 -22.0078125 13.80078125 C-24.30435752 18.89115466 -23.78263717 24.54425848 -22.12109375 29.7578125 C-21.16759464 32.21770231 -21.16759464 32.21770231 -18.5625 33.25 C-17.716875 33.4975 -16.87125 33.745 -16 34 C-14.515 34.495 -14.515 34.495 -13 35 C-11.27204648 35.06802967 -9.54164635 35.08495645 -7.8125 35.0625 C-6.91144531 35.05347656 -6.01039062 35.04445312 -5.08203125 35.03515625 C-4.39496094 35.02355469 -3.70789063 35.01195312 -3 35 C-3 34.34 -3 33.68 -3 33 C-1.515 32.505 -1.515 32.505 0 32 C2.0416526 28.59724567 3.23221631 25.22165164 4.3125 21.4375 C5.80155884 16.69812993 7.9557705 14.78602477 12 12 C15.1529763 16.72946444 14.6399379 21.46958934 14 27 C11.78066595 34.40122098 7.70639416 39.24035479 1 43 C-5.28442565 46.02236059 -12.70767238 46.15990083 -19.4140625 44.34765625 C-25.73531281 41.50431393 -30.13393373 36.498327 -32.875 30.1875 C-35.04459007 23.40426358 -34.9008592 17.2769332 -32 10.75 C-28.26020106 4.0394312 -22.39371327 -0.16387375 -15.15234375 -2.6015625 C-9.74536465 -3.60249148 -4.56273305 -3.04182204 0 0 Z " fill="#D45397" transform="translate(110,130)"/>
<path d="M0 0 C5.67476113 1.96434039 9.31400331 5.62800662 12 11 C12.81093031 17.40767881 11.94929905 22.79303726 8 28 C3.06175482 32.03122055 -1.09022545 32.64269621 -7.4140625 32.3828125 C-12.47654469 31.6333816 -15.01229731 29.06567922 -18.375 25.4375 C-20.67581945 20.57038192 -20.78113802 16.29437994 -20 11 C-15.65532687 2.14973991 -9.37053205 -0.85474448 0 0 Z " fill="#D45497" transform="translate(1227,75)"/>
<path d="M0 0 C2.31182984 4.39653254 2.56383096 8.05675089 3 13 C6.96 13.33 10.92 13.66 15 14 C12.72712384 18.54575232 10.02793764 21.59513329 6.5625 25.25 C5.99595703 25.8996875 5.42941406 26.549375 4.84570312 27.21875 C2.96533064 29.18374957 1.34626628 30.6147456 -1 32 C-3.52444458 32.03924561 -3.52444458 32.03924561 -6.25830078 31.74511719 C-10.62974272 31.63800501 -12.81725018 32.03049957 -16.12280273 34.9375 C-17.42137934 36.2645403 -18.69079315 37.6205857 -19.93359375 39 C-20.61881607 39.71027344 -21.30403839 40.42054688 -22.01002502 41.15234375 C-24.18033873 43.41022024 -26.30983319 45.70195598 -28.4375 48 C-30.59599616 50.29137475 -32.76222133 52.57455829 -34.93995667 54.84765625 C-36.2893149 56.26015096 -37.62653383 57.68436386 -38.95005798 59.12109375 C-39.85734398 60.08208984 -39.85734398 60.08208984 -40.78295898 61.0625 C-41.30937485 61.63097656 -41.83579071 62.19945312 -42.37815857 62.78515625 C-44 64 -44 64 -48 64 C-48.42382812 61.93017578 -48.42382812 61.93017578 -48 59 C-46.02328008 56.41319991 -43.62009644 54.30494065 -41.21875 52.1171875 C-39.80514817 50.7717168 -38.3924148 49.42533318 -36.98046875 48.078125 C-34.74578906 45.97339706 -32.50366987 43.87837669 -30.24462891 41.79980469 C-28.0652687 39.78448235 -25.92237767 37.73548219 -23.78125 35.6796875 C-23.10316284 35.07405975 -22.42507568 34.46843201 -21.72644043 33.8444519 C-18.87807057 31.07396065 -17.13343693 29.28925085 -16.71447754 25.24131775 C-16.77637432 23.3197979 -16.8673721 21.39895671 -16.98986816 19.48034668 C-17 17 -17 17 -15.43945312 14.19067383 C-14.72724609 13.53607178 -14.01503906 12.88146973 -13.28125 12.20703125 C-12.13076172 11.1097168 -12.13076172 11.1097168 -10.95703125 9.99023438 C-10.14621094 9.27158203 -9.33539063 8.55292969 -8.5 7.8125 C-7.68917969 7.05130859 -6.87835938 6.29011719 -6.04296875 5.50585938 C-4.05129813 3.64306156 -2.0388613 1.81079718 0 0 Z " fill="#D05294" transform="translate(147,89)"/>
</svg>
